<!DOCTYPE svg PUBLIC "-//W3C//DTD SVG 20010904//EN" "http://www.w3.org/TR/2001/REC-SVG-20010904/DTD/svg10.dtd">
<svg version="1.0" xmlns="http://www.w3.org/2000/svg" width="2000px" height="2000px" viewBox="0 0 12000 12000" preserveAspectRatio="xMidYMid meet">
<g id="layer101" fill="#6f6059" stroke="none">
<path d="M8015 9622 c-6 -5 -32 -17 -60 -27 -27 -10 -68 -26 -90 -35 -55 -24 -326 -124 -405 -150 -36 -12 -74 -25 -85 -30 -20 -8 -147 -45 -285 -81 -164 -44 -355 -80 -675 -129 -38 -6 -149 -18 -245 -28 -155 -15 -286 -17 -1155 -14 -1163 3 -1265 -2 -1775 -92 -286 -51 -637 -134 -699 -166 -9 -5 -80 -32 -158 -60 -109 -40 -143 -57 -143 -70 0 -9 28 -39 63 -66 34 -27 72 -58 84 -69 l23 -21 -90 -33 c-96 -35 -104 -35 -151 11 -8 8 -30 25 -49 38 -19 13 -44 32 -54 42 -22 20 -30 19 -121 -21 -120 -52 -282 -138 -380 -203 -124 -82 -248 -169 -255 -177 -3 -4 -21 -18 -40 -31 -19 -13 -37 -27 -40 -30 -3 -3 -27 -23 -55 -45 -27 -22 -101 -88 -163 -147 -128 -121 -278 -226 -469 -328 l-63 -33 0 -203 0 -203 38 -10 c20 -5 79 -17 129 -27 l93 -18 0 -137 0 -138 78 -16 c42 -9 95 -20 117 -25 22 -5 67 -15 100 -21 33 -6 89 -17 125 -24 36 -7 103 -21 150 -30 47 -9 114 -23 150 -30 36 -7 126 -25 200 -39 74 -15 151 -31 170 -36 40 -11 192 -40 207 -40 6 0 25 30 43 68 18 37 60 121 93 187 33 66 67 135 76 152 8 18 24 36 36 39 11 4 35 17 53 31 l32 24 0 115 0 114 28 13 c15 6 32 16 39 22 7 5 18 15 25 21 7 5 27 17 43 25 17 9 67 36 113 62 45 25 128 67 185 92 56 26 116 53 132 61 83 38 292 102 462 144 70 17 144 35 163 40 47 13 188 38 410 73 102 16 730 14 935 -3 88 -7 199 -15 248 -19 99 -7 554 2 692 14 l90 7 -3 -91 -4 -91 30 0 c17 0 42 -4 56 -10 26 -9 26 -11 26 -114 l0 -104 53 -11 c28 -5 88 -17 132 -26 44 -9 114 -23 155 -31 41 -8 101 -20 133 -26 57 -11 57 -11 42 -34 -13 -20 -15 -58 -13 -231 l3 -207 70 -12 c39 -7 104 -19 145 -27 41 -9 111 -23 155 -31 44 -9 94 -19 110 -22 52 -11 277 -55 353 -70 68 -13 135 -27 297 -59 39 -8 75 -14 82 -14 6 -1 210 329 452 733 l441 734 0 192 0 192 53 -7 c28 -4 59 -11 67 -15 9 -5 43 -12 77 -15 l60 -7 112 185 111 185 0 229 c0 125 -4 233 -8 239 -4 6 -36 17 -72 24 -36 7 -94 18 -130 25 -133 27 -326 65 -452 89 -266 50 -291 57 -359 102 -70 46 -79 49 -94 36z m-582 -1114 c-5 -7 -28 -43 -52 -80 -24 -38 -44 -68 -45 -68 -21 0 -150 31 -156 37 -4 4 -11 18 -14 29 -6 19 -1 23 36 33 24 6 81 22 128 35 102 29 114 30 103 14z"/>
<path d="M11174 7113 c-27 -20 -51 -40 -54 -43 -3 -3 -21 -17 -40 -30 -19 -13 -37 -27 -40 -30 -15 -16 -281 -195 -322 -216 -17 -9 -36 -20 -42 -25 -18 -16 -186 -109 -195 -109 -5 0 -11 -3 -13 -7 -5 -12 -219 -116 -348 -169 -47 -19 -98 -41 -115 -49 -67 -30 -317 -112 -605 -200 -386 -117 -808 -187 -1237 -205 -260 -10 -907 1 -1093 20 -142 14 -566 12 -815 -5 -121 -8 -228 -15 -239 -15 -15 0 -17 -6 -13 -37 6 -46 54 -248 66 -283 5 -14 19 -70 31 -125 12 -55 25 -109 30 -121 8 -20 4 -22 -73 -32 -276 -37 -544 -91 -685 -138 l-44 -14 -48 46 c-26 25 -63 57 -81 70 l-34 23 -72 -17 -71 -18 -123 115 c-68 64 -148 139 -178 167 l-54 51 99 31 c54 17 144 44 199 60 55 17 145 44 201 61 55 17 106 31 112 31 23 0 11 36 -39 115 -28 44 -58 92 -68 107 -19 32 -36 34 -140 16 -59 -10 -79 -9 -138 5 -57 14 -106 15 -313 11 -215 -5 -256 -9 -339 -30 -51 -13 -107 -31 -125 -39 -17 -8 -56 -23 -86 -35 -96 -36 -279 -120 -363 -167 -33 -18 -63 -33 -68 -33 -5 0 -9 -4 -9 -10 0 -5 -5 -10 -11 -10 -18 0 -115 -60 -391 -243 -142 -93 -258 -175 -258 -181 0 -6 40 -30 88 -53 333 -159 405 -193 411 -193 4 0 17 -7 29 -16 l23 -16 -28 -25 c-89 -81 -126 -114 -188 -168 -38 -33 -76 -67 -85 -75 -8 -8 -47 -40 -85 -70 -39 -30 -72 -57 -75 -60 -54 -56 -433 -301 -634 -410 -169 -90 -447 -224 -531 -255 -27 -10 -54 -22 -60 -26 -5 -4 -35 -16 -65 -27 -30 -11 -107 -40 -170 -65 -136 -52 -215 -79 -410 -140 -295 -92 -416 -124 -590 -156 -63 -12 -135 -26 -160 -32 -25 -5 -96 -17 -157 -27 l-113 -17 -1 -245 c-1 -135 1 -252 4 -260 3 -8 42 -128 88 -267 l82 -252 41 -6 c23 -4 55 -11 71 -16 17 -5 91 -21 165 -35 74 -15 164 -32 200 -39 36 -7 92 -18 125 -24 33 -6 76 -16 95 -21 19 -5 87 -19 150 -30 63 -12 135 -25 160 -31 44 -10 239 -49 375 -75 278 -53 476 -93 515 -104 19 -5 87 -19 150 -30 63 -11 131 -25 150 -30 19 -5 60 -14 90 -20 30 -5 87 -17 125 -25 39 -8 104 -22 145 -30 41 -8 95 -19 119 -24 24 -5 46 -13 50 -18 11 -18 54 -35 158 -64 57 -16 149 -42 206 -58 56 -16 145 -41 197 -56 52 -14 104 -30 115 -35 11 -5 38 -14 60 -19 22 -5 63 -16 90 -25 28 -8 85 -24 127 -36 66 -19 84 -29 119 -67 l42 -46 66 12 c36 6 116 16 176 22 61 5 169 17 240 24 72 8 195 22 275 30 80 9 206 23 280 31 74 8 196 21 270 29 146 15 153 18 192 94 7 14 19 32 26 39 6 7 12 18 12 24 0 5 13 28 29 51 16 23 83 132 149 242 67 110 125 205 131 212 6 7 11 15 11 18 0 3 23 41 50 84 28 43 50 83 50 89 0 7 3 12 8 12 4 0 17 19 29 43 19 38 22 67 32 337 6 162 11 332 11 376 l0 82 -132 88 c-73 49 -135 91 -138 95 -3 3 -23 16 -45 29 -22 13 -42 27 -45 30 -3 3 -23 17 -45 30 -22 13 -42 27 -45 30 -3 3 -23 17 -45 30 -22 13 -42 27 -45 30 -3 3 -41 29 -85 57 -44 29 -85 56 -90 60 -6 4 -60 42 -121 83 l-111 75 48 63 c26 35 46 69 43 76 -3 7 -35 19 -72 26 -37 6 -101 18 -142 25 -41 8 -113 21 -160 30 -47 9 -107 21 -135 26 -105 18 -103 16 -49 54 55 39 63 41 107 21 111 -51 101 -51 196 -2 136 70 150 79 153 105 2 19 12 27 53 38 62 17 179 51 223 65 30 9 32 12 32 58 l0 49 58 16 c31 9 73 20 92 26 113 32 398 84 545 99 185 19 975 9 975 -13 0 -11 -189 -326 -207 -345 -7 -7 -13 -18 -13 -23 0 -6 -13 -29 -29 -52 -72 -105 -71 -103 -64 -336 3 -116 9 -211 12 -211 3 -1 60 -12 126 -26 66 -13 179 -36 250 -49 72 -14 144 -29 160 -34 17 -5 82 -19 145 -30 63 -12 131 -26 150 -31 19 -5 62 -15 95 -21 33 -6 89 -17 125 -25 62 -12 127 -25 293 -58 39 -8 106 -22 147 -31 41 -9 107 -22 145 -30 39 -8 138 -28 220 -45 83 -17 182 -37 220 -45 39 -8 102 -20 140 -28 39 -8 131 -27 205 -41 74 -15 151 -31 170 -36 19 -5 95 -21 169 -35 147 -28 143 -29 178 32 10 18 122 204 248 413 127 209 235 388 240 398 38 68 101 168 107 170 5 2 8 9 8 16 0 6 16 35 35 65 19 29 35 54 35 57 0 4 93 157 100 164 3 3 16 25 29 50 13 25 30 52 36 60 7 8 21 31 30 50 10 19 21 37 25 40 4 3 15 21 25 40 10 19 26 46 35 60 10 14 30 47 46 74 16 28 39 66 51 85 52 85 53 88 53 233 0 146 2 153 48 129 9 -5 42 -12 73 -15 l56 -7 193 323 c107 178 199 332 205 343 6 11 22 38 35 60 37 60 44 73 96 160 25 44 62 104 80 132 19 29 34 57 34 62 0 5 6 16 13 23 43 46 46 67 48 297 0 122 -1 224 -3 226 -4 5 -127 30 -213 44 -95 16 -226 40 -275 50 -80 18 -104 14 -156 -26z m-4084 -1893 c107 -6 224 -13 258 -16 61 -6 63 -7 58 -30 -4 -13 -28 -57 -54 -97 -27 -41 -66 -104 -87 -141 -34 -57 -43 -66 -62 -61 -42 10 -659 26 -788 20 -144 -7 -355 -30 -425 -45 -25 -6 -97 -21 -160 -34 -63 -14 -152 -34 -198 -45 -46 -12 -87 -21 -93 -21 -5 0 -9 52 -9 121 0 114 -1 122 -26 155 -20 25 -23 35 -13 38 71 24 115 36 179 51 41 9 86 21 100 25 14 5 79 19 145 30 66 12 136 25 155 30 19 5 94 14 165 20 72 5 148 12 170 14 55 5 450 -3 685 -14z m-2160 -1115 c63 -3 135 -8 160 -12 l45 -6 -35 -9 c-49 -12 -84 -11 -255 7 -82 8 -153 15 -157 15 -5 0 -8 5 -8 11 0 8 20 10 68 6 37 -4 119 -9 182 -12z"/>
</g>
<g id="layer102" fill="#937a73" stroke="none">
<path d="M7940 9564 c-47 -19 -132 -53 -190 -75 -58 -23 -107 -42 -109 -45 -2 -2 32 -36 75 -76 43 -40 154 -144 247 -231 93 -87 179 -162 190 -167 17 -7 18 -9 5 -9 -10 -1 -124 99 -255 221 -131 122 -248 230 -260 241 -21 19 -22 19 -140 -23 -174 -61 -502 -151 -658 -181 -589 -112 -1000 -137 -1967 -117 -757 16 -1298 -6 -1298 -51 0 -13 -2 -13 -9 -3 -7 12 -27 11 -122 -3 -63 -9 -114 -17 -115 -18 -6 -8 83 -177 95 -180 11 -3 10 -5 -4 -5 -16 -1 -29 18 -60 85 -22 47 -45 88 -52 90 -28 11 -449 -76 -636 -131 -116 -34 -386 -132 -400 -145 -7 -7 156 -144 181 -152 8 -3 -41 -26 -108 -52 -105 -41 -125 -46 -141 -35 -10 7 -52 40 -94 72 -90 70 -69 72 -282 -30 -221 -106 -552 -339 -769 -540 -181 -168 -230 -204 -437 -321 -54 -31 -96 -57 -94 -59 2 -3 118 -27 258 -55 140 -28 256 -53 258 -55 2 -2 2 -6 0 -9 -9 -8 -524 98 -540 111 -8 8 -19 14 -22 14 -4 0 -7 -92 -7 -205 l0 -204 38 -10 c20 -5 79 -17 130 -27 l92 -18 0 -137 0 -138 78 -16 c42 -9 95 -20 117 -25 22 -5 67 -15 100 -21 33 -6 89 -17 125 -24 36 -7 103 -21 150 -30 47 -9 114 -23 150 -30 36 -7 126 -25 200 -39 74 -15 151 -31 170 -36 40 -11 192 -40 207 -40 6 0 25 30 43 68 18 37 60 121 93 187 33 66 67 135 76 152 8 18 24 36 36 39 58 18 105 80 75 99 -5 3 -10 43 -10 89 l0 83 37 19 c21 10 43 24 50 29 7 6 18 15 25 21 7 5 27 17 43 25 17 9 67 36 113 62 45 25 128 67 185 92 56 26 116 53 132 61 83 38 292 102 462 144 70 17 144 35 163 40 47 13 188 38 410 73 102 16 730 14 935 -3 88 -7 199 -15 248 -19 99 -7 554 2 692 14 l90 7 -3 -91 -4 -91 30 0 c17 0 42 -4 56 -10 26 -9 26 -11 26 -114 l0 -104 53 -11 c28 -5 87 -17 130 -26 42 -8 112 -22 155 -31 42 -8 105 -20 139 -27 73 -14 78 -18 62 -46 -10 -15 -16 -17 -26 -9 -11 9 -13 -27 -11 -203 l3 -213 70 -12 c39 -7 104 -19 145 -27 41 -9 111 -23 155 -31 44 -9 94 -19 110 -22 52 -11 277 -55 353 -70 68 -13 135 -27 297 -59 39 -8 75 -14 82 -14 6 -1 210 329 452 733 l441 734 0 192 0 192 53 -7 c28 -4 59 -11 67 -15 9 -5 43 -12 77 -15 l60 -7 112 185 111 185 0 231 c0 152 -4 231 -10 231 -6 0 -13 -8 -17 -17 -3 -10 -51 -93 -106 -186 -73 -123 -106 -169 -123 -173 -23 -6 -207 28 -251 46 -16 7 -25 5 -30 -4 -6 -11 -12 -8 -27 12 l-19 25 29 -6 c16 -3 84 -17 151 -32 67 -14 128 -25 137 -25 13 0 232 348 224 355 -2 2 -66 15 -142 30 -161 32 -141 39 -204 -79 l-37 -69 -102 -48 c-79 -37 -105 -54 -117 -78 -21 -40 -22 -39 22 -44 20 -2 8 -4 -28 -4 -36 0 -55 2 -44 4 13 2 28 19 38 42 15 32 31 44 121 89 l103 51 46 82 c26 45 45 83 44 84 -2 1 -136 28 -298 59 -162 32 -302 60 -312 62 -9 3 -44 23 -77 44 -34 22 -65 40 -69 40 -4 -1 -45 -17 -92 -36z m434 -543 c-23 -10 -49 -29 -58 -42 -9 -13 -16 -19 -16 -13 0 21 71 73 100 73 8 1 -4 -8 -26 -18z m197 -60 c-6 -10 -34 -28 -62 -41 -42 -18 -65 -21 -113 -17 -34 3 -70 8 -82 12 -17 5 -23 1 -34 -25 -35 -84 -116 -151 -183 -150 -13 1 5 13 43 29 59 25 68 33 107 97 36 60 40 70 25 76 -12 5 -9 7 11 7 15 1 27 -3 27 -7 0 -15 49 -32 89 -32 53 0 134 26 156 50 23 25 29 26 16 1z m-4921 -81 c0 -5 -12 -10 -27 -9 l-28 1 25 8 c14 4 26 8 28 9 1 1 2 -3 2 -9z m-72 -17 c-10 -2 -28 -2 -40 0 -13 2 -5 4 17 4 22 1 32 -1 23 -4z m-80 -10 c-10 -2 -26 -2 -35 0 -10 3 -2 5 17 5 19 0 27 -2 18 -5z m-523 -103 c-11 -5 -29 -8 -40 -8 -16 0 -15 2 5 8 34 11 60 11 35 0z m-355 -109 c-8 -5 -26 -11 -40 -15 -21 -5 -20 -3 5 9 32 15 60 20 35 6z m4870 -86 c0 -4 -157 -245 -165 -253 -2 -2 -1 5 1 15 5 17 -5 22 -81 38 -91 19 -92 20 -108 86 -6 25 -4 27 52 39 32 7 110 27 172 45 125 36 129 37 129 30z m-592 -142 c-10 -2 -26 -2 -35 0 -10 3 -2 5 17 5 19 0 27 -2 18 -5z m-430 -60 c-10 -2 -28 -2 -40 0 -13 2 -5 4 17 4 22 1 32 -1 23 -4z m1446 -1 c-7 -4 -62 -90 -123 -192 -94 -157 -108 -186 -93 -191 9 -3 102 -26 205 -50 104 -24 184 -45 179 -47 -6 -2 -97 17 -202 42 -105 25 -195 46 -200 46 -5 0 -66 -96 -136 -212 -70 -117 -131 -217 -137 -223 -15 -15 -18 -19 247 423 136 226 252 412 259 412 9 0 9 -2 1 -8z m-3224 -17 c146 -8 328 -19 405 -25 101 -8 245 -8 509 -1 341 10 417 10 355 -3 -35 -7 -755 -27 -771 -21 -25 9 -685 45 -820 45 -228 0 -696 -52 -990 -111 -403 -80 -812 -274 -1112 -527 -59 -51 -114 -92 -120 -92 -26 0 -56 -45 -54 -81 4 -71 -2 -342 -8 -336 -3 3 -5 67 -5 142 1 130 0 137 -19 142 l-21 6 21 14 c11 8 20 25 20 39 0 35 16 61 48 78 15 8 70 51 122 96 212 183 519 354 811 454 188 64 465 117 839 161 302 36 442 39 790 20z m1463 -12 c-18 -2 -48 -2 -65 0 -18 2 -4 4 32 4 36 0 50 -2 33 -4z m875 -100 c-10 -2 -26 -2 -35 0 -10 3 -2 5 17 5 19 0 27 -2 18 -5z m1390 -25 c-8 -13 -159 -264 -336 -559 -227 -379 -326 -536 -339 -536 -10 -1 -130 21 -266 48 -137 27 -251 49 -255 49 -3 0 -2 4 4 9 5 6 102 -9 254 -40 135 -27 250 -49 257 -49 13 0 167 249 159 257 -4 4 -488 103 -505 103 -2 0 -2 2 0 5 3 2 119 -18 259 -45 201 -40 257 -47 266 -37 13 13 264 432 264 440 0 2 -19 8 -42 12 -24 4 -38 9 -31 12 6 2 28 0 47 -5 l35 -10 87 147 c124 208 133 221 145 221 7 0 6 -8 -3 -22z m-1152 3 c-3 -5 -15 -7 -26 -4 -28 7 -25 13 6 13 14 0 23 -4 20 -9z m-1181 -76 c120 -17 143 -25 72 -25 -60 0 -187 22 -187 32 0 10 -13 11 115 -7z m1111 -34 c-4 -5 0 -12 6 -14 8 -3 6 -6 -4 -6 -10 -1 -18 -4 -18 -8 0 -5 -10 -19 -21 -33 l-21 -25 14 25 c8 14 20 35 27 48 6 12 14 22 17 22 3 0 3 -4 0 -9z m-586 -21 c-8 -16 -20 -20 -53 -18 l-42 1 40 4 c22 3 44 11 48 19 12 22 19 17 7 -6z m880 -60 c-6 -11 -13 -20 -16 -20 -3 0 -2 5 2 11 3 6 0 15 -7 20 -10 6 -8 9 9 9 20 0 21 -3 12 -20z m-359 -27 c-5 -10 -17 -27 -26 -38 -16 -19 -17 -19 -3 5 26 46 29 50 34 50 3 0 0 -8 -5 -17z m-47 -77 c-4 -11 4 -16 28 -20 18 -4 84 -15 147 -26 91 -16 117 -17 130 -8 12 10 12 8 -1 -8 l-18 -21 -132 23 c-73 12 -141 25 -150 29 -13 5 -20 -2 -31 -27 -8 -18 -27 -53 -43 -78 -23 -35 -36 -46 -59 -47 -42 -4 -758 141 -762 154 -3 7 616 -109 754 -142 19 -4 30 8 79 90 53 90 70 114 58 81z m-5365 -389 c-80 -60 -124 -91 -114 -80 17 20 140 112 149 112 5 1 -11 -14 -35 -32z m-178 -131 c-9 -11 -9 -15 1 -19 7 -3 2 -6 -12 -6 -15 -1 -30 -4 -36 -8 -5 -5 4 4 21 19 33 30 44 36 26 14z m-358 -173 c75 -14 92 -15 110 -3 19 12 20 11 10 -2 -14 -17 -54 -7 439 -106 l286 -58 23 40 c12 22 24 35 26 29 6 -16 -25 -73 -43 -80 -17 -6 -935 175 -948 188 -14 12 -4 12 97 -8z"/>
<path d="M11159 7072 c-41 -32 -135 -101 -209 -152 -74 -52 -136 -98 -138 -102 -2 -5 -8 -8 -13 -8 -5 0 -37 -17 -72 -39 -167 -102 -406 -227 -568 -297 -412 -177 -1019 -350 -1469 -418 -279 -42 -372 -48 -804 -52 -335 -3 -431 -6 -439 -16 -6 -9 -7 -8 -3 5 5 15 -3 17 -82 17 -48 0 -166 7 -262 15 -231 19 -508 19 -820 -1 -140 -9 -256 -17 -257 -18 -1 -1 24 -110 57 -241 32 -132 62 -257 65 -278 4 -21 13 -44 21 -52 11 -11 2 -14 -59 -20 -132 -13 -470 -74 -607 -111 -197 -52 -174 -54 -258 24 l-74 68 -75 -18 -76 -19 -41 38 c-22 21 -79 74 -126 118 -47 44 -118 110 -157 147 l-73 67 58 17 c31 9 91 26 132 39 41 13 120 37 175 53 55 17 141 43 192 58 l91 29 -59 95 c-33 52 -64 98 -68 103 -4 4 -45 2 -92 -4 -72 -10 -97 -9 -177 7 -80 15 -107 16 -185 7 -51 -6 -138 -8 -194 -6 -160 8 -258 -15 -507 -119 -253 -105 -428 -203 -781 -435 l-249 -165 49 -24 c28 -13 148 -71 268 -129 120 -58 223 -105 227 -105 16 0 20 -18 7 -32 -8 -7 -62 -56 -121 -108 -59 -52 -104 -100 -102 -107 3 -6 0 -10 -7 -7 -15 5 -139 -95 -131 -107 3 -5 -2 -9 -11 -9 -8 0 -48 -26 -88 -58 -385 -306 -1010 -635 -1587 -837 -425 -149 -727 -229 -1107 -296 -106 -18 -193 -38 -193 -44 0 -10 160 -497 166 -504 7 -8 302 -65 339 -65 22 0 86 11 143 24 95 21 108 22 173 10 78 -15 41 -22 424 85 110 31 230 65 267 75 41 11 99 38 148 70 46 29 150 79 238 114 181 73 259 111 355 172 67 43 90 75 120 164 5 16 282 183 303 183 6 0 50 -23 98 -52 48 -29 92 -51 99 -48 39 15 683 430 685 442 2 8 -2 23 -8 34 -6 12 -7 21 -3 21 4 0 86 -22 180 -49 157 -44 174 -47 194 -33 17 12 40 13 117 8 108 -8 219 -23 185 -25 -13 0 -79 4 -148 10 -109 10 -128 9 -149 -4 -22 -15 -32 -14 -148 18 -67 19 -139 39 -158 45 -53 15 -63 14 -50 -9 5 -11 10 -22 10 -25 0 -3 -56 -40 -125 -83 -69 -43 -153 -96 -188 -118 -35 -22 -117 -74 -183 -115 -65 -41 -141 -89 -168 -107 l-50 -32 -30 18 c-104 64 -152 91 -160 91 -4 0 -72 -37 -150 -82 -135 -77 -143 -83 -155 -122 -7 -23 -22 -55 -34 -73 -41 -60 -191 -142 -444 -243 -73 -29 -171 -76 -217 -105 -95 -60 -93 -59 -316 -121 -91 -24 -194 -53 -230 -64 -247 -71 -240 -70 -310 -53 l-65 15 -251 -56 c-139 -31 -255 -56 -258 -56 -5 0 2 -68 8 -77 0 -1 73 -15 161 -33 88 -17 167 -34 177 -38 14 -6 10 -17 -27 -82 -28 -50 -39 -77 -31 -81 6 -3 54 -14 106 -23 52 -10 140 -27 195 -37 55 -10 103 -19 107 -19 7 0 88 137 88 150 0 5 -17 12 -37 16 -21 3 -71 13 -111 22 l-72 17 50 75 c27 41 51 79 53 84 1 4 34 16 72 26 39 10 121 32 183 48 l112 30 92 -115 c103 -130 85 -123 220 -82 l69 20 -53 67 c-29 37 -72 91 -97 120 -25 30 -40 56 -35 61 5 5 25 13 44 19 196 59 337 110 475 172 39 18 204 90 368 161 l298 128 71 -43 70 -43 69 41 c37 23 68 44 69 48 0 3 -20 19 -45 35 -25 15 -44 32 -42 38 2 5 73 48 158 95 85 47 289 161 453 253 l299 167 101 -14 c56 -8 162 -24 236 -36 74 -11 141 -18 149 -15 7 3 20 0 27 -6 8 -6 49 -12 92 -12 114 -2 165 40 111 89 -17 15 -36 19 -99 19 -43 0 -73 3 -67 7 6 3 -3 9 -19 11 -16 3 9 3 55 0 47 -2 100 -11 118 -18 l33 -14 2 97 2 97 3 -88 c3 -57 8 -89 16 -92 12 -5 250 -21 442 -31 l110 -5 33 46 c19 26 32 48 30 50 -3 2 -141 29 -393 76 -60 11 -137 26 -170 33 l-60 13 35 15 c19 9 50 28 69 42 40 30 51 31 94 12 111 -51 101 -51 196 -2 136 70 150 79 153 105 2 19 12 27 53 38 62 17 179 51 223 65 30 9 32 12 32 58 l0 49 58 16 c31 9 73 20 92 26 123 35 396 84 560 100 154 15 952 7 958 -10 3 -9 7 -9 18 0 39 32 14 -17 -109 -218 -73 -120 -149 -244 -167 -275 -19 -31 -39 -56 -44 -55 -8 1 -10 -64 -7 -208 2 -115 4 -211 5 -212 3 -3 208 -45 381 -78 72 -14 144 -29 160 -34 17 -5 82 -19 145 -30 63 -12 131 -26 150 -31 19 -5 62 -15 95 -21 33 -6 89 -17 125 -25 65 -13 158 -32 293 -58 233 -46 336 -68 367 -76 19 -5 85 -18 145 -30 61 -11 126 -25 145 -30 32 -9 84 -19 430 -86 69 -14 141 -29 160 -34 19 -5 95 -21 169 -35 147 -28 143 -29 178 32 10 18 122 204 248 413 127 209 235 388 240 398 38 68 101 168 107 170 5 2 8 9 8 16 0 6 16 35 35 65 19 29 35 54 35 57 0 4 93 157 100 164 3 3 16 25 29 50 13 25 30 52 36 60 7 8 21 31 30 50 10 19 21 37 25 40 4 3 15 21 25 40 10 19 26 46 35 60 10 14 30 47 46 74 16 28 39 66 51 85 52 85 53 88 53 233 0 146 2 153 48 129 9 -5 42 -12 74 -15 l56 -7 58 98 c31 54 122 205 201 336 79 131 143 240 143 242 0 2 12 23 28 47 29 47 29 46 98 163 25 44 62 104 80 132 19 29 34 57 34 62 0 5 6 16 13 23 44 47 47 68 47 294 l0 217 -226 -379 c-124 -208 -283 -475 -352 -592 -70 -116 -134 -214 -143 -217 -9 -3 -92 10 -185 30 -93 19 -169 35 -170 35 -1 0 -4 7 -8 15 -4 11 -1 13 12 5 17 -10 306 -70 335 -70 10 0 102 144 257 402 133 221 242 406 243 412 1 6 6 14 10 17 4 3 52 80 106 172 81 135 96 167 83 171 -10 3 -57 12 -107 20 -49 9 -128 22 -175 31 -136 25 -252 45 -260 45 -4 0 -41 -26 -81 -58z m-481 -1119 c-15 -2 -42 -2 -60 0 -18 2 -6 4 27 4 33 0 48 -2 33 -4z m-3262 -40 c-8 -15 -15 -25 -16 -21 0 12 23 58 27 54 3 -2 -2 -17 -11 -33z m3325 -40 c-23 -42 -51 -54 -130 -56 -54 -1 -83 2 -95 12 -13 11 -22 12 -39 3 -45 -24 -283 -102 -307 -101 -14 0 27 18 90 40 63 21 142 49 175 62 58 22 61 22 95 5 19 -10 44 -18 56 -18 38 0 121 30 139 50 22 25 29 26 16 3z m-3445 -240 c-8 -15 -15 -25 -16 -21 0 12 23 58 27 54 3 -2 -2 -17 -11 -33z m-3045 -80 c13 -16 12 -17 -3 -5 -12 10 -22 11 -37 3 -30 -16 -40 -12 -11 4 32 18 35 18 51 -2z m5054 -33 c-11 -5 -31 -8 -45 -8 -23 0 -22 1 5 8 42 11 65 11 40 0z m-87 -17 c-10 -2 -26 -2 -35 0 -10 3 -2 5 17 5 19 0 27 -2 18 -5z m-4813 -72 c-3 -3 -18 8 -33 23 l-27 29 32 -23 c18 -13 30 -26 28 -29z m4944 -29 c36 -72 38 -79 25 -105 -8 -15 -17 -27 -20 -27 -2 0 2 12 10 27 13 26 11 33 -25 105 -22 43 -37 78 -34 78 3 0 22 -35 44 -78z m-2567 51 c-40 -2 -103 -2 -140 0 -37 2 -4 3 73 3 77 0 107 -2 67 -3z m-335 -10 c-20 -2 -52 -2 -70 0 -17 2 0 4 38 4 39 0 53 -2 32 -4z m670 0 c-20 -2 -52 -2 -70 0 -17 2 0 4 38 4 39 0 53 -2 32 -4z m1721 0 c-10 -2 -26 -2 -35 0 -10 3 -2 5 17 5 19 0 27 -2 18 -5z m-2545 -10 c-13 -2 -35 -2 -50 0 -16 2 -5 4 22 4 28 0 40 -2 28 -4z m2345 -20 c-10 -2 -26 -2 -35 0 -10 3 -2 5 17 5 19 0 27 -2 18 -5z m-80 -10 c-10 -2 -26 -2 -35 0 -10 3 -2 5 17 5 19 0 27 -2 18 -5z m-75 -10 c-13 -2 -33 -2 -45 0 -13 2 -3 4 22 4 25 0 35 -2 23 -4z m-4587 -12 c-3 -4 -34 -25 -68 -46 -75 -44 -64 -28 13 20 61 38 62 38 55 26z m4482 2 c-15 -2 -42 -2 -60 0 -18 2 -6 4 27 4 33 0 48 -2 33 -4z m-141 -10 c-20 -2 -52 -2 -70 0 -17 2 0 4 38 4 39 0 53 -2 32 -4z m-274 -10 c-72 -2 -194 -2 -270 0 -76 1 -16 3 132 3 149 0 211 -2 138 -3z m-432 -40 c-5 -10 -17 -27 -26 -38 -16 -19 -17 -19 -3 5 26 46 29 50 34 50 3 0 0 -8 -5 -17z m-2856 -91 c-3 -3 -20 9 -38 27 l-32 34 38 -28 c21 -15 35 -30 32 -33z m2190 18 c138 -5 326 -15 419 -21 l168 -13 20 25 c30 37 20 19 -102 -185 l-114 -188 -46 6 c-25 4 -183 11 -351 16 -531 17 -777 -7 -1227 -119 -46 -12 -87 -21 -93 -21 -5 0 -9 52 -9 121 0 114 -1 122 -26 155 -15 19 -33 34 -40 34 -20 0 -17 17 4 23 296 87 612 149 847 166 158 12 267 12 550 1z m2454 -47 c-18 -32 -57 -98 -87 -148 -30 -49 -56 -93 -58 -97 -5 -8 129 -103 254 -179 53 -33 92 -59 88 -59 -15 0 -314 190 -354 225 -4 4 179 315 185 315 2 0 -10 -26 -28 -57z m-5694 1 c-29 -24 -77 -54 -64 -40 11 12 84 65 89 65 3 0 -8 -11 -25 -25z m1125 -20 c0 -3 -13 4 -30 16 -16 12 -30 24 -30 26 0 3 14 -4 30 -16 17 -12 30 -24 30 -26z m5947 -1 c-3 -5 -70 -116 -150 -248 -79 -132 -276 -458 -436 -725 -161 -267 -302 -492 -313 -501 -21 -17 21 -24 -568 97 -124 25 -288 59 -365 74 -77 16 -273 56 -435 90 -162 33 -360 74 -440 90 -80 16 -278 56 -440 90 -162 34 -322 66 -355 72 -61 11 -97 28 -58 28 20 0 235 -43 878 -175 176 -37 374 -77 440 -90 66 -14 253 -52 415 -85 162 -34 428 -88 590 -121 162 -33 302 -62 310 -64 11 -3 41 38 101 138 288 476 379 627 381 639 2 7 10 19 19 28 9 8 101 157 204 330 104 173 192 321 198 328 10 13 31 17 24 5z m-5792 -86 l40 -4 -41 -1 c-29 -1 -46 3 -55 16 -12 15 -12 16 1 5 8 -6 33 -13 55 -16z m87 6 c-10 -4 -10 -8 0 -21 12 -15 11 -16 -4 -3 -10 7 -18 17 -18 22 0 5 8 9 18 8 11 0 12 -2 4 -6z m443 -142 c-12 -11 -267 -82 -274 -76 -8 8 1 12 124 48 125 36 166 44 150 28z m-285 -140 c0 -12 -147 -91 -169 -91 -18 0 -96 30 -134 51 -15 8 -45 -9 -160 -89 -180 -125 -254 -172 -270 -172 -6 0 0 8 16 18 15 9 25 23 22 30 -3 7 0 10 5 7 11 -7 100 45 100 58 0 4 5 7 11 7 11 0 82 50 87 63 2 4 8 7 14 7 15 0 149 96 142 102 -2 3 18 -6 46 -19 29 -14 58 -22 66 -19 8 3 13 2 10 -3 -8 -12 41 -23 66 -16 13 5 17 12 13 23 -5 13 -3 14 6 5 16 -16 62 5 54 25 -4 12 -2 12 8 4 10 -9 18 -8 33 3 22 17 34 19 34 6z m4495 -151 c33 -16 56 -29 50 -29 -5 0 -37 13 -70 29 -33 15 -55 28 -50 28 6 0 37 -12 70 -28z m-6015 -10 c11 -8 7 -9 -15 -4 -37 8 -45 14 -19 14 10 0 26 -5 34 -10z m75 -20 c13 -5 14 -9 5 -9 -8 0 -24 4 -35 9 -13 5 -14 9 -5 9 8 0 24 -4 35 -9z m6085 -25 c19 -7 28 -14 20 -14 -8 0 -28 6 -45 14 -39 17 -21 18 25 0z m190 -55 c20 -6 21 -8 5 -8 -11 0 -29 3 -40 8 -25 11 1 11 35 0z m-5935 -10 c13 -5 14 -9 5 -9 -8 0 -24 4 -35 9 -13 5 -14 9 -5 9 8 0 24 -4 35 -9z m225 0 c20 -6 21 -8 5 -8 -11 0 -33 4 -50 8 -27 7 -27 8 -5 8 14 0 36 -4 50 -8z m5958 -37 c-10 -2 -28 -2 -40 0 -13 2 -5 4 17 4 22 1 32 -1 23 -4z m-5796 -393 c-12 -12 -22 -28 -23 -38 0 -11 -2 -12 -6 -4 -6 16 23 62 39 62 7 0 2 -9 -10 -20z"/>
<path d="M3495 3693 l-431 -216 -103 -180 c-92 -160 -102 -184 -97 -216 4 -25 3 -30 -3 -16 -5 11 -12 86 -16 167 l-7 148 27 46 c15 25 25 47 23 48 -35 23 -60 36 -71 36 -11 0 -234 -93 -378 -158 -333 -150 -534 -230 -696 -278 -51 -15 -93 -30 -93 -33 0 -3 41 -57 90 -119 50 -62 90 -117 90 -121 0 -5 -20 -14 -45 -21 -25 -7 -45 -15 -45 -19 0 -3 116 -30 258 -58 687 -140 989 -202 1015 -208 22 -6 27 -4 28 11 0 12 4 8 11 -11 6 -16 12 -31 13 -33 1 -1 127 -38 281 -82 742 -214 725 -208 771 -252 l41 -41 159 17 c87 10 257 28 378 42 121 13 369 40 550 60 193 21 335 40 341 47 10 10 181 290 496 808 32 53 58 101 58 105 -1 14 -930 629 -955 632 -13 2 -48 -3 -77 -11 -39 -10 -72 -12 -114 -6 -32 4 -194 24 -359 44 -165 20 -387 47 -493 61 -106 13 -198 24 -205 23 -6 0 -206 -97 -442 -216z m-507 -1003 c0 -8 -8 8 -18 35 -10 28 -18 57 -18 65 0 8 8 -7 18 -35 10 -27 18 -57 18 -65z"/>
<path d="M128 3323 c-2 -131 0 -245 4 -253 4 -8 44 -128 89 -267 l82 -252 41 -6 c23 -4 55 -11 71 -16 17 -5 91 -21 165 -35 74 -15 164 -32 200 -39 36 -7 92 -18 125 -24 33 -6 76 -16 95 -21 19 -5 87 -19 150 -30 63 -12 135 -25 160 -31 44 -10 239 -49 375 -75 278 -53 476 -93 515 -104 19 -5 87 -19 150 -30 63 -11 131 -25 150 -30 19 -5 60 -14 90 -20 30 -5 87 -17 125 -25 39 -8 104 -22 145 -30 41 -8 95 -19 119 -24 24 -5 46 -13 50 -18 11 -18 54 -35 158 -64 57 -16 149 -42 206 -58 56 -16 145 -41 197 -56 52 -14 104 -30 115 -35 11 -5 38 -14 60 -19 22 -5 63 -16 90 -25 28 -8 85 -24 127 -36 66 -19 84 -29 119 -67 l42 -46 66 12 c36 6 116 16 176 22 61 5 169 17 240 24 72 8 195 22 275 30 80 9 204 22 275 30 72 8 193 21 270 29 152 16 157 19 197 95 7 14 19 32 26 39 6 7 12 18 12 24 0 5 13 28 29 51 16 23 83 132 149 242 67 110 125 205 131 212 6 7 11 15 11 18 0 3 22 41 50 84 27 43 50 83 50 89 0 7 3 12 8 12 4 0 17 19 29 43 20 38 23 64 30 280 4 130 5 237 1 237 -3 0 -17 -19 -31 -42 -13 -24 -120 -200 -237 -393 -117 -192 -233 -382 -257 -422 -24 -40 -52 -74 -61 -77 -18 -6 -100 -15 -617 -71 -181 -20 -428 -47 -549 -60 -120 -14 -230 -25 -244 -25 -15 0 -39 15 -63 39 -45 44 -11 33 -509 177 -184 53 -380 109 -435 125 -54 16 -108 38 -120 48 -11 10 -47 23 -80 29 -33 6 -190 38 -350 71 -449 92 -899 184 -910 184 -5 1 -28 -3 -49 -7 -34 -8 -42 -6 -56 12 -14 16 -54 28 -201 57 -182 35 -259 52 -290 61 -11 3 -30 -17 -63 -67 -26 -39 -46 -72 -44 -74 2 -2 50 -12 107 -23 57 -12 106 -23 108 -26 4 -4 -55 -112 -96 -174 -7 -11 -31 -9 -137 11 -71 14 -173 33 -226 43 -54 11 -98 23 -98 28 0 5 18 40 40 79 22 38 39 72 36 74 -2 2 -71 17 -153 33 -81 16 -157 34 -169 39 -15 6 -23 22 -28 51 -4 24 -5 45 -2 47 2 2 50 15 106 28 56 13 104 25 106 28 2 2 -49 14 -114 26 -185 36 -164 12 -255 288 -43 131 -77 246 -77 255 0 9 -4 19 -9 23 -6 3 -11 -91 -13 -232z"/>
<path d="M1273 2923 c-73 -20 -133 -39 -133 -43 0 -7 421 -93 427 -87 8 9 -130 167 -145 166 -9 0 -77 -17 -149 -36z"/>
</g>
<g id="layer103" fill="#a1978f" stroke="none">
<path d="M7945 9565 c-44 -19 -131 -54 -194 -78 l-113 -44 208 -195 c313 -291 294 -276 350 -286 27 -6 38 -10 24 -11 -59 -3 -93 20 -233 151 -78 73 -171 160 -207 194 -36 33 -86 79 -111 102 l-45 41 -182 -60 c-224 -73 -473 -138 -694 -179 -517 -95 -940 -117 -1883 -98 -443 8 -650 8 -830 0 -264 -12 -455 -31 -455 -44 0 -4 16 -47 36 -94 19 -47 34 -88 31 -90 -2 -2 -33 -6 -68 -9 l-64 -4 62 10 62 11 -35 81 c-18 44 -37 84 -41 88 -8 8 -212 -16 -221 -26 -5 -5 52 -136 70 -161 5 -7 28 -10 56 -8 26 2 -29 -9 -123 -26 -339 -59 -610 -140 -1028 -306 -101 -41 -84 -45 -202 50 -38 31 -75 56 -81 56 -16 0 -182 -74 -274 -122 -191 -100 -504 -327 -692 -502 -160 -149 -206 -183 -390 -293 -80 -48 -145 -89 -144 -90 2 -2 504 -103 512 -103 2 0 4 -6 4 -14 0 -13 -32 -37 -197 -148 -40 -27 -73 -53 -73 -57 0 -5 53 -18 118 -30 116 -22 175 -39 141 -40 -34 -2 -264 50 -276 62 -9 9 9 26 84 77 169 114 188 129 172 134 -18 6 -171 37 -354 71 -77 15 -147 33 -156 41 -8 8 -19 14 -22 14 -4 0 -7 -92 -7 -205 l0 -204 38 -10 c20 -5 79 -17 130 -27 l92 -18 0 -137 0 -138 78 -16 c42 -9 95 -20 117 -25 22 -5 67 -15 100 -21 33 -6 89 -17 125 -24 36 -7 103 -21 150 -30 47 -9 114 -23 150 -30 36 -7 126 -25 200 -39 74 -15 151 -31 170 -36 40 -11 192 -40 207 -40 6 0 25 30 43 68 18 37 60 121 93 187 33 66 67 134 75 151 9 19 30 38 52 48 20 9 45 25 55 36 17 19 17 22 1 59 -13 27 -17 56 -14 101 4 61 5 63 43 84 37 20 46 26 77 52 7 5 27 17 43 25 17 9 67 36 113 62 45 25 128 67 185 92 56 26 116 53 132 61 83 38 292 102 462 144 70 17 144 35 163 40 47 13 188 38 410 73 102 16 730 14 935 -3 88 -7 199 -15 248 -19 99 -7 554 2 692 14 l90 7 -3 -91 -4 -91 30 0 c17 0 42 -4 56 -10 26 -9 26 -11 26 -114 l0 -104 53 -11 c28 -5 87 -17 130 -26 42 -8 112 -22 155 -31 42 -8 109 -21 147 -29 39 -7 72 -13 74 -14 2 -1 -2 -8 -9 -16 -18 -22 -5 -32 52 -39 51 -7 88 -20 78 -29 -10 -9 -146 25 -163 41 -17 15 -17 6 -15 -198 l3 -214 70 -12 c39 -7 104 -19 145 -27 41 -9 111 -23 155 -31 44 -9 94 -19 110 -22 52 -11 277 -55 353 -70 68 -13 135 -27 297 -59 39 -8 75 -14 82 -14 6 -1 210 329 452 733 l441 734 0 192 0 192 53 -7 c28 -4 59 -11 67 -15 9 -5 43 -12 77 -15 l60 -7 112 185 111 185 0 231 c0 152 -4 231 -10 231 -6 0 -13 -8 -17 -17 -18 -52 -208 -353 -225 -359 -11 -3 -36 -3 -56 0 -67 12 -177 38 -200 47 -17 7 -24 5 -28 -6 -5 -12 -10 -10 -26 10 -17 22 -28 25 -86 26 -37 1 -57 4 -46 6 14 3 27 18 37 43 13 35 24 43 118 88 l104 49 43 76 c23 43 42 81 42 85 0 5 -53 19 -117 31 -475 92 -497 97 -563 140 -35 23 -66 41 -69 40 -3 0 -42 -16 -86 -34z m429 -544 c-23 -10 -49 -29 -58 -42 -15 -23 -23 -16 -8 7 10 17 75 54 92 54 8 0 -4 -9 -26 -19z m197 -60 c-6 -10 -33 -28 -62 -40 -40 -18 -65 -22 -113 -18 -33 2 -71 8 -83 12 -14 4 -23 3 -23 -3 0 -6 -15 -36 -32 -66 -26 -44 -43 -61 -80 -79 -26 -12 -47 -27 -48 -33 0 -5 16 -25 35 -44 19 -19 35 -38 35 -44 0 -14 -49 34 -68 66 -9 15 -25 28 -36 30 -14 2 0 11 41 27 59 22 66 28 108 95 43 69 44 71 22 78 -18 5 -16 6 11 7 17 1 32 -3 32 -7 0 -15 49 -32 89 -32 53 0 134 26 156 50 23 25 29 26 16 1z m-677 -289 c-5 -4 -20 -24 -33 -44 -12 -21 -25 -38 -28 -38 -3 0 1 10 9 23 8 12 20 32 27 45 6 12 17 22 24 22 8 0 8 -3 1 -8z m396 -32 c0 -13 -30 -13 -50 0 -11 7 -7 10 18 10 17 0 32 -4 32 -10z m83 -11 c-9 -9 -53 -1 -53 10 0 4 14 6 31 3 17 -2 27 -8 22 -13z m-558 -79 c-9 -16 -18 -30 -21 -30 -2 0 2 14 11 30 9 17 18 30 21 30 2 0 -2 -13 -11 -30z m-325 5 c0 -3 -26 -45 -58 -93 -32 -48 -80 -122 -106 -164 -27 -43 -50 -78 -53 -78 -5 0 34 68 49 85 19 22 5 34 -57 44 -98 17 -110 24 -123 69 -10 33 -16 39 -35 36 -37 -6 30 13 203 59 188 51 180 49 180 42z m1044 -159 c-49 -80 -92 -146 -96 -146 -11 0 -3 15 95 179 45 74 83 129 85 123 2 -6 -36 -76 -84 -156z m-756 92 c-8 -13 -34 -56 -57 -95 -24 -40 -45 -73 -48 -73 -5 0 -7 -3 56 103 29 48 55 87 58 87 3 0 -1 -10 -9 -22z m-880 -75 c-10 -2 -26 -2 -35 0 -10 3 -2 5 17 5 19 0 27 -2 18 -5z m1172 -8 c-46 -18 -64 -17 -25 0 17 8 37 14 45 14 8 0 -1 -7 -20 -14z m-1372 -22 c-10 -2 -26 -2 -35 0 -10 3 -2 5 17 5 19 0 27 -2 18 -5z m1312 3 c0 -3 -24 -12 -52 -22 l-53 -16 -112 -186 c-62 -103 -111 -187 -110 -188 7 -8 492 -114 501 -111 7 3 59 83 116 178 120 203 106 182 119 178 6 -2 -139 -254 -322 -559 -271 -451 -338 -556 -356 -558 -13 -2 -56 4 -95 12 -39 9 -118 25 -176 36 -184 35 -252 52 -243 61 5 5 119 -13 258 -41 137 -28 253 -49 258 -47 9 3 158 250 153 254 -2 2 -106 24 -232 48 -288 56 -274 53 -274 70 0 8 114 204 253 436 250 417 254 422 298 439 45 18 69 24 69 16z m-1462 -23 c-10 -2 -26 -2 -35 0 -10 3 -2 5 17 5 19 0 27 -2 18 -5z m-75 -10 c-13 -2 -33 -2 -45 0 -13 2 -3 4 22 4 25 0 35 -2 23 -4z m-1753 -18 c135 -8 308 -20 385 -25 98 -8 239 -8 470 -1 396 13 415 13 395 2 -18 -10 -770 -35 -797 -27 -29 9 -675 46 -803 46 -128 0 -396 -22 -565 -46 -60 -8 -157 -22 -215 -30 -284 -40 -487 -95 -715 -193 -224 -97 -401 -202 -560 -330 -129 -105 -124 -97 -63 -104 29 -4 64 -15 78 -25 24 -18 25 -24 26 -123 0 -57 -1 -74 -3 -36 -2 37 -5 67 -6 67 -1 0 -20 -7 -42 -15 -52 -19 -127 -19 -171 0 -33 13 -35 13 -32 -2 2 -13 25 -22 86 -36 45 -10 80 -23 76 -28 -3 -5 -10 -6 -16 -3 -12 7 -124 33 -145 34 -10 0 -13 -27 -13 -105 0 -77 3 -105 13 -105 9 0 9 -2 0 -8 -6 -4 -13 -21 -16 -37 -4 -29 -4 -29 -6 5 -1 19 -3 84 -4 145 l-2 109 -45 13 c-34 9 -36 12 -11 8 42 -6 61 8 61 47 0 34 1 35 234 222 183 147 490 313 736 398 174 60 466 117 805 158 365 43 499 47 865 25z m1658 8 c-10 -2 -28 -2 -40 0 -13 2 -5 4 17 4 22 1 32 -1 23 -4z m-85 -10 c-13 -2 -33 -2 -45 0 -13 2 -3 4 22 4 25 0 35 -2 23 -4z m-135 -10 c-21 -2 -55 -2 -75 0 -21 2 -4 4 37 4 41 0 58 -2 38 -4z m1491 -50 c-12 -21 -27 -42 -32 -48 -11 -11 9 29 31 63 24 37 25 25 1 -15z m-514 -43 c42 -11 1 -11 -50 -1 -34 7 -35 9 -10 9 17 0 44 -4 60 -8z m-135 -11 c-25 -4 -56 -7 -70 -7 -38 1 37 15 80 15 32 0 31 0 -10 -8z m-122 -16 c-10 -2 -26 -2 -35 0 -10 3 -2 5 17 5 19 0 27 -2 18 -5z m383 -10 c-5 -10 -17 -27 -26 -38 -16 -19 -16 -18 -1 7 20 34 20 36 -1 41 -11 3 -7 5 10 6 24 1 26 -2 18 -16z m328 -20 c-12 -21 -27 -42 -32 -48 -11 -11 9 29 31 63 24 37 25 25 1 -15z m-876 8 c-24 -4 -44 -9 -46 -12 -2 -2 -18 -30 -36 -61 -32 -57 -33 -58 -74 -56 l-42 1 40 4 c38 4 43 8 73 63 36 65 41 69 92 68 34 0 33 -1 -7 -7z m-591 -61 c175 -25 189 -30 73 -24 -105 4 -225 24 -225 36 0 10 -14 11 152 -12z m1084 -14 c-14 -23 -14 -25 2 -29 14 -4 13 -5 -3 -6 -14 -1 -34 -24 -64 -71 -23 -38 -45 -70 -48 -70 -3 0 1 10 9 23 8 12 36 57 62 100 27 42 50 77 53 77 3 0 -2 -11 -11 -24z m332 -18 c-15 -24 -146 -238 -163 -267 -126 -214 -170 -287 -173 -291 -8 -10 -104 -2 -116 10 -8 9 3 10 49 5 l60 -7 82 141 c45 77 78 143 75 145 -11 6 -283 49 -285 45 -1 -2 -19 -35 -39 -74 -31 -60 -41 -70 -66 -73 -16 -2 -107 13 -203 32 -96 19 -199 39 -229 45 -30 6 -119 23 -198 39 -79 15 -142 32 -140 37 2 6 8 9 13 8 306 -59 742 -146 751 -150 8 -3 35 33 69 91 52 89 72 117 59 81 -4 -8 -2 -15 3 -15 8 0 83 -13 265 -45 25 -4 31 3 78 79 27 46 50 86 50 89 0 3 -8 8 -17 10 -12 3 -10 5 7 6 18 1 31 12 48 41 12 22 25 40 28 40 4 0 0 -10 -8 -22z m-1190 -5 c-10 -2 -26 -2 -35 0 -10 3 -2 5 17 5 19 0 27 -2 18 -5z m-232 -89 c-26 -42 -45 -78 -43 -80 2 -3 24 -11 48 -19 l44 -15 -43 5 c-74 9 -76 20 -19 113 28 45 52 80 55 77 3 -3 -16 -39 -42 -81z m302 79 c-10 -2 -26 -2 -35 0 -10 3 -2 5 17 5 19 0 27 -2 18 -5z m80 -10 c-10 -2 -28 -2 -40 0 -13 2 -5 4 17 4 22 1 32 -1 23 -4z m830 -10 c-10 -2 -26 -2 -35 0 -10 3 -2 5 17 5 19 0 27 -2 18 -5z m-477 -454 c57 -11 106 -22 108 -25 13 -13 -16 -10 -119 11 -63 13 -115 22 -116 21 -13 -33 -113 -186 -121 -186 -7 0 16 45 50 100 38 61 68 100 78 100 9 0 63 -9 120 -21z m183 -35 c9 -3 16 -9 16 -13 0 -10 -59 -1 -66 10 -6 10 26 12 50 3z m-5384 -99 c-62 -47 -115 -87 -117 -89 -3 -2 21 -10 52 -16 31 -6 55 -14 52 -16 -2 -2 -30 1 -62 8 -45 9 -62 9 -79 -2 -40 -24 -1 9 124 104 69 52 129 95 134 95 5 1 -42 -37 -104 -84z m175 65 c25 -11 -1 -11 -35 0 -20 6 -21 8 -5 8 11 0 29 -3 40 -8z m379 -211 c-27 -45 -56 -84 -64 -87 -13 -4 -12 -2 1 14 9 10 35 52 59 92 23 40 45 70 48 68 3 -3 -17 -42 -44 -87z m-444 1 c20 -6 21 -8 5 -8 -11 0 -31 4 -45 8 -20 6 -21 8 -5 8 11 0 31 -4 45 -8z m-330 -14 c0 -2 -32 -28 -70 -56 -39 -29 -70 -54 -68 -55 2 -1 167 -35 367 -75 l364 -74 16 21 c9 11 21 29 27 39 23 37 24 6 2 -34 -26 -48 -30 -49 -143 -26 -207 41 -379 76 -595 119 -129 26 -239 51 -245 56 -13 13 5 12 105 -8 l87 -16 74 56 c75 58 79 60 79 53z m430 -6 c20 -6 21 -8 5 -8 -11 0 -33 4 -50 8 -27 7 -27 8 -5 8 14 0 36 -4 50 -8z m5115 -30 c109 -22 201 -43 204 -45 12 -13 -10 -13 -69 0 -36 8 -128 26 -205 41 -77 15 -144 31 -149 35 -16 15 12 11 219 -31z m-4935 -10 c20 -6 21 -8 5 -8 -11 0 -31 4 -45 8 -20 6 -21 8 -5 8 11 0 31 -4 45 -8z"/>
<path d="M7536 7734 c-75 -124 -136 -229 -136 -234 0 -11 -8 -10 255 -60 116 -22 220 -42 232 -45 19 -4 37 21 157 220 87 145 131 227 123 230 -12 5 -484 115 -491 115 -2 0 -65 -102 -140 -226z"/>
<path d="M2162 7606 c-44 -16 -76 -50 -69 -71 18 -45 154 -58 225 -21 40 21 43 58 8 81 -32 21 -122 27 -164 11z"/>
<path d="M8753 9303 l-48 -86 -102 -48 c-79 -37 -105 -54 -117 -78 -21 -40 -21 -41 17 -41 17 0 60 -7 94 -15 123 -29 264 -56 274 -53 5 2 56 82 114 178 l105 175 -133 27 c-72 15 -137 27 -144 28 -7 0 -34 -39 -60 -87z"/>
<path d="M3130 8990 c-290 -55 -464 -102 -695 -187 -82 -31 -153 -59 -157 -62 -4 -4 34 -40 84 -80 l92 -74 45 18 c239 92 535 178 759 219 74 13 136 26 138 29 3 3 -13 41 -35 86 -34 66 -45 81 -64 80 -12 -1 -87 -14 -167 -29z"/>
<path d="M11178 7087 c-69 -56 -140 -108 -265 -194 -56 -39 -100 -73 -96 -77 3 -3 -1 -6 -10 -6 -9 0 -67 -31 -129 -69 -322 -195 -667 -345 -1100 -477 -252 -76 -418 -120 -587 -155 -426 -86 -706 -111 -1215 -108 l-318 3 -14 -25 -14 -24 6 28 6 27 -83 0 c-46 0 -169 7 -274 15 -248 19 -449 19 -785 -1 -151 -9 -276 -17 -277 -18 -1 -1 30 -130 69 -289 56 -230 73 -287 86 -288 10 -1 -42 -9 -113 -19 -236 -33 -388 -61 -545 -102 -85 -22 -165 -42 -178 -45 -17 -4 -39 10 -98 62 l-76 68 -75 -17 -75 -18 -31 29 c-18 16 -105 98 -195 182 -135 126 -166 151 -185 146 -16 -4 -18 -3 -7 3 8 6 123 42 255 82 395 118 405 121 405 130 0 5 -28 52 -62 105 -58 91 -63 96 -89 91 -90 -18 -162 -18 -245 0 -75 15 -100 16 -178 7 -50 -6 -139 -9 -197 -6 -132 7 -219 -10 -384 -72 -177 -67 -327 -137 -494 -230 -169 -95 -643 -403 -639 -416 5 -15 540 -269 552 -262 6 3 70 45 141 93 167 112 355 225 472 284 l92 46 322 -236 322 -236 83 7 c78 6 84 5 83 -12 0 -10 -3 -13 -6 -5 -2 6 -17 12 -31 12 l-27 -1 33 -29 c17 -16 32 -38 32 -47 1 -30 25 -65 70 -98 l43 -32 130 39 c71 21 137 38 145 38 35 0 -8 -20 -98 -45 -180 -50 -166 -50 -218 -13 -32 23 -55 50 -73 86 -36 74 -66 100 -104 93 l-30 -6 124 -133 c70 -75 120 -137 115 -142 -20 -18 -144 -80 -162 -80 -18 0 -96 29 -135 51 -14 7 -35 -2 -100 -48 -45 -31 -111 -77 -147 -101 -36 -25 -74 -53 -85 -62 -11 -10 -37 -26 -58 -35 -38 -18 -43 -18 -182 5 -133 22 -144 23 -167 8 -27 -18 5 -25 -488 105 -316 83 -456 120 -476 124 -15 4 -45 -14 -103 -61 -81 -66 -329 -233 -473 -319 -335 -202 -800 -411 -1223 -552 -296 -98 -524 -164 -696 -200 -113 -24 -450 -85 -471 -85 -10 0 -18 -6 -18 -12 0 -12 159 -499 165 -506 1 -2 78 -18 171 -37 l169 -35 119 26 c111 25 125 26 195 15 l76 -12 185 51 c102 29 208 58 235 65 214 58 269 78 358 133 50 32 110 64 132 71 95 33 319 131 391 172 99 56 135 92 160 160 l21 54 150 88 151 88 92 -57 92 -57 31 18 c18 10 68 42 112 70 44 28 100 64 125 79 25 15 90 56 145 91 55 35 142 90 193 121 94 58 96 61 77 107 -10 24 -2 23 187 -32 163 -47 167 -47 195 -30 23 14 39 16 88 9 33 -4 116 -13 185 -20 148 -14 247 -27 278 -36 22 -6 22 -5 24 87 l2 94 3 -88 c3 -57 8 -89 16 -92 12 -4 243 -20 447 -30 l105 -6 33 47 c18 25 32 47 30 49 -2 1 -140 28 -308 60 -168 31 -307 58 -309 60 -2 2 12 10 30 18 19 8 49 27 68 41 40 30 51 31 94 12 111 -51 101 -51 196 -2 136 70 150 79 153 105 2 19 12 27 53 38 62 17 179 51 223 65 30 9 32 12 32 58 l0 49 58 16 c31 9 73 20 92 26 123 35 396 84 560 100 154 15 952 7 958 -10 3 -9 7 -9 18 0 40 33 14 -20 -112 -228 -75 -125 -150 -247 -166 -270 l-28 -41 50 -11 c27 -6 68 -14 90 -17 39 -6 66 -24 37 -24 -28 0 -172 32 -183 41 -6 5 -14 6 -17 3 -5 -6 2 -414 8 -421 2 -3 207 -45 380 -78 72 -14 144 -29 160 -34 17 -5 82 -19 145 -30 63 -12 131 -26 150 -31 19 -5 62 -15 95 -21 33 -6 89 -17 125 -25 65 -13 158 -32 293 -58 233 -46 336 -68 367 -76 19 -5 85 -18 145 -30 61 -11 126 -25 145 -30 32 -9 84 -19 430 -86 69 -14 141 -29 160 -34 19 -5 95 -21 169 -35 147 -28 143 -29 178 32 10 18 122 204 248 413 127 209 235 388 240 398 38 68 101 168 107 170 5 2 8 9 8 16 0 6 16 35 35 65 19 29 35 54 35 57 0 4 93 157 100 164 3 3 16 25 29 50 13 25 30 52 36 60 7 8 21 31 30 50 10 19 21 37 25 40 4 3 15 21 25 40 10 19 26 46 35 60 10 14 30 47 46 74 16 28 39 66 51 85 52 85 53 88 53 233 0 146 2 153 48 129 9 -5 42 -12 74 -15 l56 -7 58 98 c31 54 122 205 201 336 79 131 143 240 143 242 0 2 12 23 28 47 29 47 29 46 98 163 25 44 62 104 80 132 19 29 34 57 34 62 0 5 6 16 13 23 6 7 20 29 30 48 16 31 18 59 15 245 l-3 209 -65 -109 c-35 -61 -95 -162 -133 -225 -38 -63 -78 -131 -89 -150 -11 -19 -82 -138 -158 -265 -76 -126 -163 -274 -195 -327 -31 -54 -66 -100 -76 -103 -10 -3 -76 6 -146 20 -173 35 -205 44 -219 63 -9 12 -34 19 -81 23 l-68 6 61 1 c46 2 67 -3 85 -16 15 -12 88 -31 193 -52 l170 -33 15 23 c9 13 120 197 247 409 145 243 226 389 220 393 -7 5 -5 8 4 8 9 0 58 72 117 170 95 159 101 170 80 175 -12 3 -60 11 -107 19 -47 8 -161 29 -254 45 -93 17 -172 31 -176 31 -5 0 -32 -19 -62 -43z m-3762 -1174 c-8 -15 -15 -25 -16 -21 0 12 23 58 27 54 3 -2 -2 -17 -11 -33z m3325 -40 c-19 -35 -48 -50 -108 -57 -43 -5 -73 -2 -104 8 -24 8 -48 11 -54 7 -5 -5 -67 -28 -137 -51 -71 -24 -128 -46 -128 -50 0 -3 55 -19 123 -34 116 -27 170 -45 139 -46 -22 0 -265 61 -294 74 -26 12 -25 12 45 36 40 14 118 41 175 61 56 20 105 33 108 28 2 -5 22 -13 43 -19 51 -13 133 4 169 36 33 28 36 29 23 7z m-3355 -30 c-8 -15 -15 -25 -16 -21 0 12 23 58 27 54 3 -2 -2 -17 -11 -33z m-30 -70 c-8 -15 -15 -25 -16 -21 0 12 23 58 27 54 3 -2 -2 -17 -11 -33z m-30 -70 c-8 -15 -15 -25 -16 -21 0 12 23 58 27 54 3 -2 -2 -17 -11 -33z m-30 -70 c-8 -15 -15 -25 -16 -21 0 12 23 58 27 54 3 -2 -2 -17 -11 -33z m2519 7 c-11 -5 -27 -9 -35 -9 -9 0 -8 4 5 9 11 5 27 9 35 9 9 0 8 -4 -5 -9z m848 -12 c42 -6 77 -15 77 -20 0 -4 -10 -6 -22 -4 -13 3 -57 10 -98 17 -41 6 -84 16 -95 21 -21 9 -11 8 138 -14z m-948 -14 c-27 -7 -54 -13 -60 -13 -17 2 69 27 90 27 11 0 -2 -6 -30 -14z m1174 -20 c39 -5 40 -6 28 -32 -17 -40 -39 -73 -44 -68 -3 3 5 21 17 41 12 20 20 38 18 41 -3 2 -35 7 -72 11 -36 3 -66 10 -66 15 0 6 17 7 40 4 22 -3 58 -9 79 -12z m-3623 -31 c-8 -15 -15 -25 -16 -21 0 12 23 58 27 54 3 -2 -2 -17 -11 -33z m2184 -13 c-14 -4 -34 -8 -45 -8 -16 0 -15 2 5 8 14 4 34 8 45 8 16 0 15 -2 -5 -8z m-2214 -57 c-8 -15 -15 -25 -16 -21 0 12 23 58 27 54 3 -2 -2 -17 -11 -33z m2072 30 c-15 -4 -11 -18 32 -103 l50 -99 -95 -160 c-52 -89 -102 -172 -110 -185 -16 -24 -16 -25 77 -89 211 -146 376 -227 603 -295 83 -25 302 -69 363 -74 l43 -3 198 328 c197 326 216 355 226 346 4 -5 -55 -106 -406 -684 -90 -148 -233 -386 -319 -528 -85 -141 -164 -263 -175 -271 -17 -11 -33 -11 -110 5 -49 11 -155 32 -235 49 -80 16 -278 56 -440 90 -162 33 -362 74 -445 91 -82 17 -213 44 -290 59 -77 16 -273 57 -435 90 -162 33 -362 74 -445 91 -82 17 -177 36 -210 43 -32 6 -58 16 -56 21 1 6 8 9 14 8 24 -4 382 -77 687 -139 173 -36 358 -74 410 -84 52 -10 250 -51 440 -90 1200 -247 1099 -228 1116 -205 9 11 79 126 157 255 78 129 178 296 223 370 55 90 79 137 71 141 -7 4 -39 10 -72 14 -178 20 -450 102 -630 189 -90 44 -287 167 -369 230 -18 14 -13 24 91 201 l110 185 -44 88 c-25 48 -48 91 -53 96 -4 4 -53 1 -109 -9 -55 -9 -106 -15 -113 -13 -7 3 44 14 112 25 120 20 176 26 138 16z m-308 -54 c-76 -15 -302 -49 -319 -48 -24 2 299 57 334 57 22 0 18 -3 -15 -9z m1790 -128 c-40 -67 -76 -121 -81 -121 -5 0 26 57 67 126 42 69 78 123 81 120 3 -2 -28 -59 -67 -125z m-3972 112 c-49 -2 -127 -2 -175 0 -49 1 -9 3 87 3 96 0 136 -2 88 -3z m-350 -10 c-21 -2 -57 -2 -80 0 -24 2 -7 4 37 4 44 0 63 -2 43 -4z m655 0 c-23 -2 -64 -2 -90 0 -26 2 -7 3 42 3 50 0 71 -1 48 -3z m-825 -10 c-15 -2 -42 -2 -60 0 -18 2 -6 4 27 4 33 0 48 -2 33 -4z m2282 -29 c-47 -7 -105 -12 -130 -12 -29 1 -11 5 50 13 126 16 188 16 80 -1z m-245 -25 c-107 -12 -771 -23 -778 -13 -3 5 97 8 236 6 133 -1 298 2 367 6 69 5 152 9 185 9 l60 0 -70 -8z m-788 -26 c-25 -46 -138 -237 -206 -347 l-85 -138 -45 6 c-25 4 -184 11 -352 16 -531 17 -777 -7 -1227 -119 -46 -12 -87 -21 -93 -21 -5 0 -9 52 -9 121 0 114 -1 122 -26 155 -15 19 -35 34 -46 34 -34 0 -9 18 50 35 429 126 779 172 1212 161 233 -6 347 -12 636 -32 l102 -7 41 72 c23 39 44 71 47 71 3 0 3 -3 1 -7z m-2876 -996 c-13 -13 -15 37 -3 98 7 38 7 37 10 -24 2 -36 -2 -69 -7 -74z"/>
<path d="M3734 4226 c6 -23 -17 -39 -332 -237 -185 -117 -346 -218 -357 -225 -18 -12 -31 -7 -110 41 -49 30 -94 55 -99 55 -12 0 -268 -148 -282 -163 -6 -7 -19 -34 -28 -60 -10 -26 -33 -63 -52 -81 -52 -50 -205 -130 -391 -205 -101 -40 -205 -90 -258 -123 -79 -49 -110 -62 -245 -98 -85 -23 -240 -66 -345 -96 l-190 -55 -62 17 c-57 15 -67 15 -130 1 -37 -9 -153 -35 -258 -57 -104 -23 -191 -42 -192 -44 -1 -1 0 -18 3 -38 l6 -35 167 -33 c91 -18 171 -36 177 -39 8 -4 -3 -31 -31 -81 -37 -65 -41 -76 -27 -82 14 -6 389 -78 405 -78 7 0 87 139 87 150 0 5 -17 12 -37 16 -63 11 -177 34 -179 37 -2 2 91 154 102 166 3 4 94 29 235 66 53 14 104 27 112 31 11 4 42 -28 107 -110 51 -64 96 -116 101 -116 13 0 162 41 176 49 7 4 -23 49 -84 124 -52 66 -91 122 -87 126 5 4 88 33 184 64 96 32 227 80 290 108 63 28 249 109 412 180 l298 129 65 -40 c36 -22 70 -40 76 -40 13 0 126 67 134 80 3 4 -15 21 -40 37 -25 15 -44 32 -42 37 3 8 103 68 257 153 30 16 190 105 354 198 l300 168 205 -32 c114 -17 223 -34 243 -37 36 -6 36 -6 35 27 -2 27 4 37 32 56 19 13 28 23 20 23 -8 0 -88 7 -178 16 -153 16 -166 16 -192 0 -27 -16 -33 -15 -187 29 -87 25 -162 45 -166 45 -5 0 -5 -11 -2 -24z"/>
<path d="M4461 4133 c-50 -26 -61 -48 -35 -73 16 -17 35 -21 90 -23 113 -3 173 38 125 86 -29 30 -132 35 -180 10z"/>
<path d="M3495 3693 l-430 -216 -100 -174 c-55 -97 -101 -183 -103 -192 -1 -9 11 -56 28 -105 16 -50 30 -95 29 -100 0 -6 -16 34 -35 89 -30 88 -35 116 -41 241 -6 139 -6 142 20 188 l25 46 -28 20 c-15 11 -35 20 -43 20 -8 0 -61 -21 -118 -46 -57 -25 -185 -81 -284 -124 -99 -43 -236 -103 -305 -133 -124 -54 -278 -109 -397 -142 -35 -10 -63 -20 -63 -24 0 -3 40 -57 90 -118 49 -62 90 -117 90 -122 0 -6 -21 -17 -47 -25 -30 -8 -42 -16 -33 -20 8 -3 114 -25 235 -50 215 -44 476 -97 860 -175 105 -22 192 -37 194 -35 2 2 -18 69 -43 150 -26 80 -46 148 -43 150 2 2 27 -71 57 -161 32 -101 59 -169 69 -174 9 -5 120 -38 246 -74 793 -228 741 -211 791 -259 l42 -40 708 77 c423 46 713 82 720 88 6 7 83 131 171 277 88 146 211 347 272 448 61 100 111 186 111 190 -1 9 -912 614 -945 626 -17 7 -42 4 -84 -7 -54 -15 -69 -15 -163 -2 -56 8 -218 28 -358 45 -140 17 -346 42 -456 55 -111 14 -203 25 -205 24 -2 0 -197 -97 -434 -216z m-546 -877 c-1 -15 -28 46 -28 64 0 8 6 0 14 -19 8 -18 15 -38 14 -45z"/>
<path d="M129 3325 c-2 -132 -1 -247 3 -255 4 -8 44 -128 89 -267 l82 -252 41 -6 c23 -4 55 -11 71 -16 17 -5 91 -21 165 -35 74 -15 164 -32 200 -39 36 -7 92 -18 125 -24 33 -6 76 -16 95 -21 19 -5 87 -19 150 -30 63 -12 135 -25 160 -31 44 -10 239 -49 375 -75 278 -53 476 -93 515 -104 19 -5 87 -19 150 -30 63 -11 131 -25 150 -30 19 -5 60 -14 90 -20 30 -5 87 -17 125 -25 39 -8 104 -22 145 -30 41 -8 95 -19 119 -24 24 -5 46 -13 50 -18 11 -18 54 -35 158 -64 57 -16 149 -42 206 -58 56 -16 145 -41 197 -56 52 -14 104 -30 115 -35 11 -5 38 -14 60 -19 22 -5 63 -16 90 -25 28 -8 85 -24 127 -36 66 -19 84 -29 119 -67 l42 -46 66 12 c36 6 116 16 176 22 61 5 169 17 240 24 72 8 195 22 275 30 80 9 204 22 275 30 72 8 193 21 270 29 152 16 157 19 197 95 7 14 19 32 26 39 6 7 12 18 12 24 0 5 13 28 29 51 16 23 83 132 149 242 67 110 125 205 131 212 6 7 11 15 11 18 0 3 22 41 50 84 27 43 50 83 50 89 0 7 3 12 8 12 4 0 17 19 29 43 20 38 23 64 30 280 4 130 5 236 1 235 -4 -2 -42 -61 -85 -133 -402 -664 -478 -787 -494 -795 -9 -6 -102 -19 -206 -30 -103 -11 -224 -24 -268 -30 -44 -5 -168 -19 -275 -30 -205 -21 -411 -44 -544 -60 -130 -16 -141 -15 -189 29 -44 41 -115 66 -452 160 -38 11 -142 40 -230 66 -88 25 -204 59 -258 74 -53 16 -107 37 -118 47 -14 13 -84 31 -227 60 -114 23 -310 63 -437 89 -650 133 -688 140 -729 130 -33 -8 -41 -6 -55 11 -14 17 -63 30 -264 70 l-248 50 -31 -51 c-17 -27 -37 -60 -45 -71 -14 -21 -12 -22 86 -39 54 -10 105 -21 112 -25 9 -6 -2 -33 -42 -99 -29 -50 -58 -91 -64 -91 -5 0 -64 11 -130 24 -66 13 -164 31 -217 41 -66 12 -98 23 -98 31 0 8 18 43 41 80 22 36 38 68 36 70 -2 3 -76 18 -164 35 -88 17 -165 34 -170 38 -17 10 -26 101 -11 105 7 2 49 12 93 21 132 28 133 26 -40 61 -146 29 -129 7 -219 285 -43 134 -82 253 -86 264 -4 11 -9 -88 -11 -220z"/>
<path d="M1273 2922 c-73 -20 -133 -39 -133 -42 0 -5 422 -91 427 -87 1 2 -27 40 -63 85 -39 49 -71 82 -82 81 -9 -1 -77 -17 -149 -37z"/>
</g>
<g id="layer104" fill="#97aeba" stroke="none">
<path d="M7545 9408 c-255 -93 -629 -187 -945 -237 -466 -74 -714 -83 -2075 -72 -448 4 -558 2 -715 -13 -207 -19 -233 -24 -227 -40 3 -6 21 -48 41 -93 19 -46 31 -83 27 -83 -5 0 -109 -16 -232 -35 -349 -53 -620 -128 -994 -275 -88 -34 -170 -65 -182 -67 -17 -4 -43 10 -98 53 -42 33 -84 65 -94 72 -15 10 -30 7 -92 -20 -97 -42 -261 -127 -331 -171 -231 -148 -422 -295 -594 -457 -121 -114 -233 -195 -403 -291 -51 -29 -89 -54 -85 -56 5 -1 113 -23 239 -48 292 -57 275 -53 275 -70 0 -8 -17 -27 -37 -41 -226 -156 -235 -163 -211 -168 13 -3 70 -15 126 -26 57 -11 108 -22 113 -26 9 -5 13 -97 4 -106 -3 -2 -67 7 -142 22 l-138 27 -5 48 c-7 69 -33 75 -29 7 3 -30 0 -48 -6 -46 -5 1 -48 10 -95 18 -47 9 -95 19 -107 21 -23 5 -23 7 -23 184 0 99 -3 186 -6 195 -18 46 -24 -3 -24 -189 l0 -204 38 -10 c20 -5 79 -17 130 -27 l92 -18 0 -137 0 -138 77 -16 c43 -9 96 -20 118 -25 22 -5 67 -15 100 -21 33 -6 89 -17 125 -24 36 -7 103 -21 150 -30 47 -9 114 -23 150 -30 36 -7 126 -25 200 -39 74 -15 151 -31 170 -36 40 -11 192 -40 207 -40 6 0 30 39 53 88 150 311 172 349 210 366 20 9 45 25 56 37 17 19 17 22 2 47 -8 15 -30 34 -47 42 -26 13 -31 21 -31 51 0 29 6 41 38 65 34 27 75 50 95 52 4 1 14 7 22 14 29 26 41 34 70 49 17 9 67 36 113 62 45 25 128 67 185 92 56 26 116 53 132 61 83 38 292 102 462 144 70 17 144 35 163 40 47 13 188 38 410 73 102 16 730 14 935 -3 88 -7 199 -15 248 -19 99 -7 554 2 692 14 l90 7 -3 -91 -4 -91 30 0 c17 0 42 -4 56 -10 26 -9 26 -11 26 -114 l0 -104 53 -11 c28 -5 87 -17 130 -26 42 -8 112 -22 155 -31 42 -8 115 -22 161 -29 46 -8 109 -19 139 -26 l55 -11 -7 -55 c-5 -40 -25 -89 -79 -191 l-72 -137 -3 177 c-2 145 -5 177 -17 182 -13 5 -15 -21 -13 -201 l3 -207 70 -12 c39 -7 104 -19 145 -27 41 -9 111 -23 155 -31 44 -9 94 -19 110 -22 56 -12 280 -56 355 -70 41 -8 109 -22 150 -30 41 -8 107 -21 145 -29 39 -8 75 -14 82 -14 6 -1 210 329 452 733 l441 734 0 192 0 192 53 -7 c28 -4 59 -11 67 -15 9 -5 43 -12 77 -15 l60 -7 112 185 111 185 0 232 c0 181 -3 231 -12 227 -10 -3 -12 -53 -9 -218 l3 -214 -103 -173 -104 -172 -3 200 c-2 151 -5 200 -15 200 -9 0 -11 -48 -9 -214 l4 -213 -53 12 c-30 7 -93 21 -141 31 l-88 17 0 181 c0 100 -5 188 -10 196 -12 19 -12 29 -10 -179 1 -155 0 -163 -17 -155 -10 5 -48 9 -84 8 -52 -1 -77 -7 -114 -27 -26 -15 -49 -27 -51 -27 -2 0 -4 74 -4 165 0 118 -3 165 -12 165 -8 0 -10 -50 -5 -192 l6 -193 -39 -80 -39 -80 0 87 c-1 71 3 94 19 120 25 41 25 48 0 48 -18 0 -20 7 -20 75 0 48 -4 75 -11 75 -8 0 -10 -24 -7 -75 2 -41 0 -75 -3 -75 -9 0 -85 84 -91 100 -3 10 -25 5 -93 -20 -50 -17 -98 -34 -108 -37 -13 -4 -395 -623 -527 -853 -5 -8 -42 -74 -84 -146 -42 -73 -76 -136 -76 -142 0 -5 36 -15 80 -22 74 -12 80 -14 80 -36 0 -28 0 -28 -102 -12 -77 11 -78 12 -78 40 0 17 -4 27 -10 23 -5 -3 -10 -15 -10 -26 0 -18 -4 -20 -47 -13 -27 3 -50 9 -53 11 -3 3 -3 88 -1 190 2 134 0 184 -8 179 -7 -5 -11 -66 -11 -187 l0 -181 -37 -66 -38 -67 -3 178 c-3 239 -21 232 -24 -11 l-3 -187 -105 20 -105 20 -3 108 c-2 68 -7 107 -13 107 -8 0 -10 -34 -7 -105 l4 -105 -36 6 c-19 3 -71 14 -115 25 -79 18 -287 60 -418 84 -37 7 -69 14 -72 17 -2 2 19 42 47 88 l51 85 -2 98 c-3 110 -5 108 81 87 131 -32 703 -139 708 -133 4 5 45 71 91 148 45 77 105 173 131 214 26 40 48 77 48 81 0 4 -37 13 -82 20 -64 9 -104 10 -173 1 -49 -6 -139 -18 -198 -25 -59 -8 -109 -15 -111 -17 -1 -2 -20 -33 -41 -68 l-38 -63 -41 6 c-23 3 -93 13 -156 21 -63 9 -141 19 -172 23 -50 8 -58 6 -58 -8 0 -9 -20 -49 -45 -89 -25 -40 -45 -74 -45 -76 0 -1 18 -5 40 -9 l40 -6 0 -85 c0 -92 1 -91 -59 -79 l-31 7 0 78 c0 43 -4 81 -10 84 -6 4 -10 -25 -10 -80 0 -95 8 -87 -72 -71 -16 4 -25 11 -23 19 2 6 6 93 9 192 l5 180 33 -3 c33 -3 91 -12 218 -31 36 -6 119 -17 185 -26 66 -8 134 -17 152 -19 30 -4 34 -1 68 60 20 35 38 64 41 64 3 0 94 12 202 26 229 31 205 30 308 12 l82 -14 32 54 c17 29 30 56 27 58 -3 3 -39 13 -80 24 -42 10 -80 21 -85 24 -5 3 -13 22 -16 42 -7 33 -9 35 -34 29 -78 -20 -301 -54 -687 -104 -38 -5 -144 -14 -235 -21 -91 -6 -179 -13 -196 -16 l-31 -4 -7 -183 c-4 -100 -8 -183 -9 -184 -2 -1 -158 -5 -348 -10 -239 -6 -402 -4 -530 4 -101 6 -272 17 -379 24 -534 33 -1035 -31 -1555 -198 -257 -82 -533 -218 -792 -388 l-53 -35 0 53 c-1 48 -2 50 -15 33 -8 -11 -15 -40 -16 -65 0 -43 -3 -49 -51 -86 -28 -22 -60 -45 -71 -52 -12 -6 -29 -22 -39 -35 l-18 -23 0 42 c0 36 -4 43 -22 48 -13 3 -75 16 -138 29 -63 13 -169 35 -235 49 -66 14 -130 27 -142 29 -24 3 -226 -139 -217 -153 3 -5 21 -11 42 -15 52 -9 291 -56 627 -124 22 -5 40 -8 41 -7 0 1 11 19 23 39 l22 37 36 -25 c20 -13 45 -24 57 -25 51 -2 61 -5 62 -14 1 -5 -38 -90 -87 -188 l-89 -178 -1 138 c-2 182 -2 183 -14 180 -6 -1 -9 -66 -6 -179 2 -98 1 -178 -2 -178 -3 0 -205 40 -449 89 -243 49 -513 103 -598 120 -85 17 -161 34 -169 37 -16 5 -14 7 159 124 l111 75 -3 68 c-2 37 -1 67 2 67 3 0 47 -9 99 -20 l93 -20 32 23 c17 12 120 89 229 170 110 82 204 150 210 153 7 2 79 -11 162 -30 136 -30 151 -32 162 -17 7 9 13 28 13 44 0 26 30 67 49 67 5 0 50 35 99 78 171 148 323 246 548 353 302 143 523 201 1004 263 63 8 158 21 210 28 143 20 682 16 960 -6 245 -20 354 -21 830 -6 384 12 501 21 836 66 313 41 473 71 677 125 210 57 202 55 194 35 -4 -9 -37 -63 -73 -119 -97 -147 -215 -339 -212 -342 2 -2 57 -13 123 -24 66 -12 130 -24 142 -26 19 -5 43 30 209 307 103 172 192 319 199 326 7 8 66 33 132 56 192 69 194 70 233 139 19 34 36 65 38 68 2 4 -23 10 -54 14 -95 12 -52 -22 -464 365 l-136 128 -79 -30z m1076 -1023 c-1 -99 -3 -181 -4 -182 -2 -1 -299 63 -412 89 l-60 14 39 14 c34 13 43 25 82 102 24 49 48 88 52 88 4 0 24 -5 45 -11 54 -15 142 4 192 40 68 50 69 49 66 -154z m-421 45 l0 -80 -35 -17 c-19 -9 -37 -15 -39 -12 -2 2 -6 28 -7 57 -3 50 -1 54 28 72 17 10 34 28 38 39 11 37 15 23 15 -59z m-62 -139 c20 -6 98 -24 172 -40 218 -49 301 -69 305 -73 3 -2 -188 -324 -423 -716 l-427 -712 -3 175 c-1 105 -6 175 -12 175 -6 0 -10 -72 -10 -186 l0 -186 -26 6 c-23 6 -463 94 -912 182 -106 21 -197 41 -203 45 -10 6 44 117 123 256 l23 40 210 -43 c116 -24 217 -43 226 -43 8 -1 31 20 50 47 18 26 63 83 99 127 61 75 65 83 65 130 0 48 12 71 250 467 l250 417 100 34 100 34 3 -63 3 -63 37 -10z m-1993 -591 c3 -5 -12 -40 -34 -77 l-41 -68 0 78 0 77 34 0 c19 0 38 -4 41 -10z m1028 -237 c4 -2 7 -64 7 -137 l0 -134 -72 14 c-276 53 -354 70 -360 79 -4 5 -8 27 -8 48 0 32 3 37 18 33 9 -2 55 -12 102 -21 47 -9 92 -18 101 -21 12 -3 30 17 64 76 l47 81 47 -7 c25 -4 49 -8 54 -11z m140 -23 c39 -8 55 -15 50 -23 -6 -11 -135 -179 -155 -201 -4 -6 -8 48 -8 118 l0 128 28 -6 c15 -3 53 -10 85 -16z m-5063 -190 c0 -15 -7 -20 -27 -20 -25 0 -26 0 -8 20 10 11 22 20 27 20 4 0 8 -9 8 -20z m-1335 -114 c139 -25 139 -20 -2 -116 -69 -47 -132 -89 -140 -94 -14 -8 -15 4 -10 100 4 60 7 115 7 123 0 10 9 12 33 8 17 -3 68 -13 112 -21z"/>
<path d="M11808 7010 c-4 -8 -9 -103 -10 -210 l-3 -195 -324 -540 c-178 -297 -332 -553 -343 -570 l-19 -30 2 185 c2 212 2 210 -11 190 -5 -8 -10 -99 -10 -204 l0 -188 -32 6 c-18 3 -52 8 -75 12 l-43 7 0 60 c0 69 -16 68 -24 -2 -3 -24 -7 -45 -9 -48 -3 -2 -34 2 -71 8 l-66 12 0 198 c0 121 -4 200 -10 204 -7 4 -10 -60 -10 -184 l0 -190 -37 16 c-45 18 -118 11 -174 -18 l-39 -19 0 165 c0 116 -3 164 -11 160 -6 -5 -10 -42 -9 -99 1 -50 1 -136 1 -191 l-1 -100 -148 -48 c-81 -26 -151 -47 -156 -47 -5 0 -7 77 -3 184 3 101 3 186 1 189 -3 3 -20 1 -37 -4 -36 -11 -339 -90 -462 -120 -165 -42 -202 -50 -275 -65 -41 -8 -81 -17 -88 -19 -9 -3 1 -31 33 -95 25 -49 45 -94 45 -99 0 -5 -28 -56 -61 -113 -34 -57 -71 -119 -81 -138 -11 -19 -31 -54 -44 -76 -29 -49 -39 -36 117 -140 255 -169 544 -278 863 -324 43 -7 82 -8 86 -3 4 4 83 134 175 288 228 379 234 387 251 381 7 -3 53 -10 101 -17 49 -6 91 -14 95 -18 4 -4 -63 -124 -150 -267 -86 -143 -332 -551 -547 -907 l-390 -646 -3 180 c-1 114 -6 178 -12 174 -6 -4 -10 -83 -10 -196 0 -104 -3 -189 -7 -189 -5 0 -51 9 -103 20 -52 11 -160 34 -240 50 -80 16 -278 57 -440 90 -162 34 -326 67 -365 75 -38 8 -214 44 -390 80 -176 36 -374 77 -440 90 -66 14 -264 54 -440 90 -176 36 -345 71 -375 76 -30 6 -58 13 -62 15 -7 4 111 203 460 777 l182 298 -2 197 -2 197 -6 -195 -5 -195 -37 -60 -38 -60 0 173 c0 108 -4 172 -10 172 -6 0 -10 -65 -10 -175 l0 -175 -97 6 c-54 3 -114 10 -134 15 -20 5 -176 13 -346 19 -546 17 -780 -5 -1246 -120 -49 -12 -91 -19 -94 -16 -3 3 -6 59 -7 123 -1 106 -3 121 -24 150 -13 18 -32 33 -43 33 -41 0 -16 17 64 42 131 43 431 108 642 139 134 21 828 18 1090 -4 110 -9 201 -14 203 -9 1 4 22 38 46 76 l44 70 333 2 c408 3 580 19 1109 104 332 53 446 77 771 160 380 96 365 92 567 160 89 30 161 59 158 65 -25 66 164 130 238 81 21 -13 365 -90 372 -83 5 5 457 764 470 788 l13 27 -92 16 c-51 9 -227 38 -392 65 l-300 49 -120 -72 c-371 -223 -715 -367 -1250 -521 -572 -164 -959 -217 -1605 -219 l-365 -1 -120 -283 -120 -282 -105 7 c-169 11 -633 8 -795 -5 -290 -24 -623 -80 -868 -145 l-127 -34 -78 69 c-57 51 -82 68 -97 64 -11 -3 -46 -11 -77 -18 l-57 -12 -133 126 c-73 69 -160 150 -194 181 l-61 56 -154 -63 c-85 -35 -170 -70 -189 -78 l-35 -15 95 -69 c52 -38 194 -142 315 -232 l220 -162 55 6 c30 3 67 8 83 10 26 5 27 4 27 -41 0 -63 20 -106 69 -144 l42 -33 132 37 c73 21 138 40 146 43 12 5 13 -17 8 -137 l-6 -142 31 -34 c21 -25 26 -36 16 -39 -7 -3 -62 -19 -123 -37 -60 -17 -116 -34 -122 -37 -10 -3 -13 32 -13 156 0 169 -1 172 -48 172 -36 1 -113 70 -137 123 -30 69 -61 95 -100 88 l-30 -6 118 -128 c65 -70 122 -127 125 -127 4 0 6 -71 4 -157 -3 -140 -1 -159 14 -170 10 -7 16 -14 13 -16 -9 -9 -177 -97 -183 -97 -3 0 -6 74 -6 165 0 103 -4 165 -10 165 -6 0 -10 -62 -10 -165 0 -91 -3 -165 -7 -165 -5 0 -35 11 -68 25 l-60 26 4 169 c2 119 0 170 -8 170 -7 0 -11 -42 -11 -129 0 -212 2 -207 -93 -269 l-81 -52 -60 10 c-34 6 -85 16 -113 22 l-53 11 0 45 c0 39 2 43 18 36 9 -5 54 -9 99 -9 71 0 85 3 104 22 28 27 19 50 -26 68 -43 19 -89 18 -140 -1 -22 -8 -47 -16 -55 -18 -11 -2 -16 -19 -18 -65 -3 -59 -4 -63 -25 -58 -118 26 -480 97 -495 97 -14 0 -817 -492 -840 -514 -2 -2 17 -18 42 -36 25 -17 46 -35 46 -40 0 -5 -32 -28 -71 -51 l-72 -43 -41 23 c-35 19 -38 20 -16 2 14 -11 41 -29 60 -40 l35 -20 260 164 c468 295 436 272 425 301 -6 14 -10 27 -10 30 0 11 46 1 194 -42 155 -44 161 -45 188 -29 25 14 41 15 146 5 64 -6 123 -13 130 -15 7 -3 55 -7 107 -11 53 -3 110 -10 128 -15 66 -19 67 -18 67 76 l0 86 43 18 c23 11 57 31 76 45 40 30 51 31 94 12 111 -51 101 -51 196 -2 136 70 150 79 153 105 2 19 12 27 53 38 62 17 179 51 223 65 30 9 32 12 32 58 l0 49 58 16 c31 9 73 20 92 26 51 14 262 58 360 74 192 32 312 38 730 32 504 -7 680 -16 680 -33 0 -4 -224 -370 -441 -722 l-94 -154 -6 174 c-3 95 -6 175 -7 178 -1 3 -7 -2 -12 -10 -7 -12 -3 -407 4 -417 3 -3 208 -45 381 -78 72 -14 144 -29 160 -34 17 -5 82 -19 145 -30 63 -12 131 -26 150 -31 19 -5 62 -15 95 -21 33 -6 89 -17 125 -25 60 -12 109 -22 295 -59 251 -50 334 -67 365 -75 19 -5 85 -18 145 -30 61 -11 126 -25 145 -30 32 -9 84 -19 430 -86 69 -14 141 -29 160 -34 19 -5 95 -21 169 -35 147 -28 143 -29 178 32 10 18 122 204 248 413 127 209 235 388 240 398 38 68 101 168 107 170 5 2 8 9 8 16 0 6 16 35 35 65 19 29 35 54 35 57 0 4 93 157 100 164 3 3 16 25 29 50 13 25 30 52 36 60 7 8 21 31 30 50 10 19 21 37 25 40 4 3 15 21 25 40 10 19 26 46 35 60 10 14 30 47 46 74 16 28 39 66 51 85 52 85 53 88 53 233 0 146 2 153 48 129 9 -5 42 -12 73 -15 l57 -7 69 118 c85 145 84 144 212 354 57 95 109 181 115 193 6 12 23 39 36 61 37 60 44 73 96 160 25 44 62 104 80 132 19 29 34 57 34 62 0 5 6 16 13 23 6 7 20 29 30 48 16 31 18 59 15 245 -2 116 -6 203 -10 195z m-949 -1542 l51 -11 0 -134 0 -133 -27 0 c-66 0 -372 54 -532 93 l-174 42 159 53 c158 52 159 52 202 37 65 -23 161 -3 202 40 26 28 46 30 119 13z m-5359 -618 c0 -109 -2 -120 -20 -130 -20 -10 -20 -8 -20 120 0 123 1 130 20 130 19 0 20 -7 20 -120z m-308 -282 c-2 -16 -8 -28 -13 -28 -11 0 -12 274 -1 284 8 9 21 -215 14 -256z m308 111 c0 -18 -2 -19 -15 -9 -8 7 -15 16 -15 21 0 5 7 9 15 9 9 0 15 -9 15 -21z"/>
</g>
<g id="layer105" fill="#e4afa8" stroke="none">
<path d="M11808 7010 c-4 -8 -9 -103 -10 -210 l-3 -195 -339 -565 c-186 -311 -341 -567 -343 -570 -3 -3 -4 78 -3 180 3 211 3 210 -10 190 -5 -8 -10 -99 -10 -202 0 -104 -3 -188 -7 -188 -7 0 -109 17 -280 47 l-33 6 0 198 c0 121 -4 200 -10 204 -7 4 -10 -60 -10 -184 l0 -190 -37 16 c-45 18 -118 11 -174 -18 l-39 -19 0 165 c0 116 -3 164 -11 160 -6 -5 -10 -42 -9 -99 1 -50 1 -136 1 -191 l-1 -100 -148 -48 c-81 -26 -151 -47 -156 -47 -5 0 -7 77 -3 184 3 101 3 186 1 189 -3 3 -20 1 -37 -4 -36 -11 -339 -90 -462 -120 -165 -42 -202 -50 -275 -65 -41 -8 -81 -17 -88 -19 -9 -3 1 -31 33 -95 25 -49 45 -94 45 -99 0 -5 -28 -56 -61 -113 -34 -57 -71 -119 -81 -138 -11 -19 -31 -54 -44 -76 -29 -49 -39 -36 117 -140 255 -169 544 -278 863 -324 43 -7 82 -8 86 -3 4 4 83 134 175 288 228 379 234 387 251 381 7 -3 53 -10 101 -17 49 -6 91 -14 95 -18 4 -4 -63 -124 -150 -267 -86 -143 -332 -551 -547 -907 l-390 -646 -3 180 c-1 114 -6 178 -12 174 -6 -4 -10 -83 -10 -196 0 -104 -3 -189 -7 -189 -5 0 -51 9 -103 20 -52 11 -160 34 -240 50 -80 16 -278 57 -440 90 -162 34 -326 67 -365 75 -38 8 -214 44 -390 80 -176 36 -374 77 -440 90 -66 14 -264 54 -440 90 -176 36 -345 71 -375 76 -30 6 -58 13 -62 15 -7 4 111 203 460 777 l182 298 -2 197 -2 197 -6 -195 -5 -195 -37 -60 -38 -60 0 173 c0 108 -4 172 -10 172 -6 0 -10 -65 -10 -175 l0 -175 -97 6 c-54 3 -114 10 -134 15 -20 5 -176 13 -346 19 -489 16 -745 -4 -1093 -84 -192 -43 -263 -64 -312 -93 -5 -2 -8 59 -8 136 0 119 2 141 15 141 21 0 19 6 -11 46 -15 19 -25 36 -23 38 2 2 40 15 84 29 127 42 429 107 640 138 134 21 828 18 1090 -4 110 -9 201 -14 203 -9 1 4 22 38 46 76 l44 70 333 2 c408 3 580 19 1109 104 332 53 446 77 771 160 380 96 365 92 567 160 89 30 161 59 158 65 -25 66 164 130 238 81 21 -13 365 -90 372 -83 5 5 457 764 470 788 l13 27 -92 16 c-51 9 -227 38 -392 65 l-300 49 -120 -72 c-371 -223 -715 -367 -1250 -521 -572 -164 -959 -217 -1605 -219 l-365 -1 -120 -283 -120 -282 -105 7 c-169 11 -633 8 -795 -5 -290 -24 -623 -80 -868 -145 l-127 -34 -78 69 c-57 51 -82 68 -97 64 -11 -3 -46 -11 -77 -18 l-57 -12 -133 126 c-73 69 -160 150 -194 181 l-61 56 -154 -63 c-85 -35 -170 -70 -189 -78 l-35 -15 95 -69 c52 -38 194 -142 315 -232 l220 -162 55 6 c30 3 67 8 83 10 26 5 27 4 27 -41 0 -63 20 -106 69 -144 l42 -33 132 37 c73 21 138 40 146 43 12 5 13 -17 8 -137 l-6 -142 31 -34 c21 -25 26 -36 16 -39 -58 -20 -289 -86 -297 -86 -16 0 -15 307 1 312 6 2 -17 24 -53 49 -50 34 -70 56 -90 97 -36 74 -66 100 -104 93 l-30 -6 118 -128 c65 -70 122 -127 125 -127 4 0 6 -71 4 -157 -3 -140 -1 -159 14 -170 10 -7 16 -14 13 -16 -9 -9 -177 -97 -183 -97 -3 0 -6 74 -6 165 0 103 -4 165 -10 165 -6 0 -10 -62 -10 -165 0 -91 -3 -165 -7 -165 -5 0 -35 11 -68 25 l-60 26 4 169 c2 119 0 170 -8 170 -7 0 -11 -42 -11 -129 0 -212 2 -207 -93 -269 l-81 -52 -60 10 c-34 6 -85 16 -113 22 l-53 11 0 45 c0 39 2 43 18 36 9 -5 54 -9 99 -9 71 0 85 3 104 22 28 27 19 50 -26 68 -43 19 -89 18 -140 -1 -22 -8 -47 -16 -55 -18 -11 -2 -16 -19 -18 -65 -3 -59 -4 -63 -25 -58 -118 26 -480 97 -495 97 -14 0 -817 -492 -840 -514 -2 -2 17 -18 42 -36 25 -17 46 -35 46 -40 0 -5 -32 -28 -71 -51 l-72 -43 -41 23 c-35 19 -38 20 -16 2 14 -11 41 -29 60 -40 l35 -20 260 164 c468 295 436 272 425 301 -6 14 -10 27 -10 30 0 11 46 1 194 -42 155 -44 161 -45 188 -29 25 14 41 15 146 5 64 -6 123 -13 130 -15 7 -3 55 -7 107 -11 53 -3 110 -10 128 -15 66 -19 67 -18 67 76 l0 86 43 18 c23 11 57 31 76 45 40 30 51 31 94 12 111 -51 101 -51 196 -2 136 70 150 79 153 105 2 19 12 27 53 38 62 17 179 51 223 65 30 9 32 12 32 58 l0 49 58 16 c31 9 73 20 92 26 51 14 262 58 360 74 192 32 312 38 730 32 504 -7 680 -16 680 -33 0 -4 -224 -370 -441 -722 l-94 -154 -6 174 c-3 95 -6 175 -7 178 -1 3 -7 -2 -12 -10 -7 -12 -3 -407 4 -417 3 -3 208 -45 381 -78 72 -14 144 -29 160 -34 17 -5 82 -19 145 -30 63 -12 131 -26 150 -31 19 -5 62 -15 95 -21 33 -6 89 -17 125 -25 60 -12 109 -22 295 -59 251 -50 334 -67 365 -75 19 -5 85 -18 145 -30 61 -11 126 -25 145 -30 32 -9 84 -19 430 -86 69 -14 141 -29 160 -34 19 -5 95 -21 169 -35 147 -28 143 -29 178 32 10 18 122 204 248 413 127 209 235 388 240 398 38 68 101 168 107 170 5 2 8 9 8 16 0 6 16 35 35 65 19 29 35 54 35 57 0 4 93 157 100 164 3 3 16 25 29 50 13 25 30 52 36 60 7 8 21 31 30 50 10 19 21 37 25 40 4 3 15 21 25 40 10 19 26 46 35 60 10 14 30 47 46 74 16 28 39 66 51 85 52 85 53 88 53 233 0 146 2 153 48 129 9 -5 42 -12 73 -15 l57 -7 69 118 c85 145 84 144 212 354 57 95 109 181 115 193 6 12 23 39 36 61 37 60 44 73 96 160 25 44 62 104 80 132 19 29 34 57 34 62 0 5 6 16 13 23 6 7 20 29 30 48 16 31 18 59 15 245 -2 116 -6 203 -10 195z m-949 -1542 l51 -11 0 -134 0 -133 -27 0 c-66 0 -372 54 -532 93 l-174 42 159 53 c158 52 159 52 202 37 65 -23 161 -3 202 40 26 28 46 30 119 13z m-5359 -789 c0 -18 -2 -19 -15 -9 -8 7 -15 16 -15 21 0 5 7 9 15 9 9 0 15 -9 15 -21z"/>
<path d="M4165 5528 c-22 -11 -42 -22 -44 -24 -17 -15 634 -714 665 -714 36 0 18 30 -73 123 -93 97 -217 229 -452 485 -57 62 -102 114 -100 117 2 2 49 -46 104 -107 121 -134 223 -245 409 -442 114 -120 151 -154 195 -173 29 -13 55 -22 57 -21 1 2 -72 82 -163 178 -91 96 -253 271 -360 388 -107 116 -195 212 -196 212 -1 -1 -20 -10 -42 -22z"/>
<path d="M4232 5541 c5 -13 400 -441 554 -600 74 -77 144 -151 155 -165 21 -27 44 -32 69 -16 11 7 -28 52 -181 207 -107 109 -256 265 -331 347 -137 148 -284 274 -266 227z"/>
<path d="M4085 5488 c-11 -6 -22 -12 -24 -14 -9 -8 455 -519 602 -663 58 -56 67 -62 86 -51 20 10 12 21 -146 189 -152 160 -333 359 -453 498 -39 46 -47 51 -65 41z"/>
<path d="M4011 5446 c-24 -13 -23 -14 94 -142 194 -211 558 -594 565 -594 3 0 15 6 25 14 21 15 39 -6 -265 318 -69 73 -181 197 -249 276 -69 78 -130 142 -135 142 -6 -1 -22 -7 -35 -14z"/>
<path d="M3951 5411 c-12 -7 -10 -14 8 -38 32 -40 313 -344 461 -498 69 -72 139 -146 155 -166 72 -86 -373 381 -545 571 -52 58 -99 106 -105 108 -6 1 -18 -3 -27 -10 -15 -12 -5 -26 99 -138 240 -258 567 -600 573 -600 3 0 25 14 48 31 l42 31 -177 186 c-98 103 -250 265 -337 360 -88 94 -164 172 -170 172 -6 0 -17 -4 -25 -9z"/>
<path d="M4485 5338 c293 -310 540 -558 554 -558 9 0 22 5 29 12 25 25 -588 616 -642 618 -5 0 22 -33 59 -72z"/>
<path d="M3844 5346 c-18 -14 -17 -17 31 -68 28 -29 116 -123 195 -208 79 -85 196 -208 260 -274 63 -65 120 -124 125 -130 97 -115 -89 75 -407 416 -207 222 -232 246 -249 235 -10 -6 -19 -15 -19 -18 0 -9 220 -244 655 -698 l33 -33 46 31 46 32 -192 202 c-106 111 -260 275 -342 365 -82 89 -152 162 -156 162 -3 0 -15 -6 -26 -14z"/>
<path d="M3693 5248 c-35 -23 -63 -45 -62 -48 0 -3 143 -150 317 -327 316 -320 317 -322 367 -329 69 -10 116 -8 131 8 10 11 -26 53 -193 228 -113 118 -267 280 -341 360 -75 80 -141 146 -146 147 -6 2 -39 -16 -73 -39z m462 -441 c121 -126 226 -238 234 -250 18 -27 -18 8 -180 178 -316 330 -449 472 -470 500 -12 17 27 -22 87 -85 60 -63 208 -218 329 -343z m-251 183 c60 -63 179 -186 265 -272 85 -87 152 -160 149 -163 -3 -3 -33 25 -68 62 -35 38 -164 172 -286 298 -121 127 -238 250 -259 275 -41 49 25 -17 199 -200z"/>
<path d="M4710 5194 c55 -64 375 -384 385 -384 5 0 17 4 25 10 12 7 1 23 -55 82 -39 40 -94 99 -123 131 -29 31 -58 57 -64 57 -6 0 -52 30 -102 66 -58 42 -82 56 -66 38z"/>
<path d="M3603 5189 c-14 -14 -27 1 266 -309 274 -289 293 -308 329 -315 17 -4 32 -3 32 2 -1 4 -139 149 -308 321 -245 251 -309 311 -319 301z"/>
<path d="M3562 5158 c-10 -13 114 -152 397 -443 116 -119 148 -155 139 -155 -4 0 -209 215 -510 535 l-47 50 -32 -32 -33 -32 150 -158 c82 -86 187 -199 234 -249 58 -63 96 -96 119 -103 19 -6 36 -9 37 -8 1 1 -72 81 -163 177 -238 253 -346 370 -340 370 3 0 123 -126 267 -279 144 -154 271 -282 282 -285 13 -3 31 3 46 14 13 11 29 17 36 13 6 -4 -68 76 -164 176 -96 101 -224 237 -284 302 -61 66 -113 119 -117 119 -3 0 -11 -6 -17 -12z"/>
<path d="M5000 5075 c13 -14 25 -25 27 -25 2 0 3 11 3 25 0 20 -5 25 -27 25 l-26 0 23 -25z"/>
<path d="M3436 5051 c-35 -36 -51 -13 173 -253 124 -134 170 -177 194 -182 16 -3 31 -5 33 -4 1 2 -61 71 -138 153 -174 187 -261 285 -255 285 2 0 97 -101 211 -223 158 -171 215 -226 242 -235 l34 -10 -23 28 c-26 31 -438 470 -441 470 -1 0 -15 -13 -30 -29z"/>
<path d="M3375 5000 c-6 -9 41 -61 247 -276 43 -45 90 -85 104 -88 24 -6 22 -2 -22 48 -139 155 -300 324 -311 325 -6 1 -15 -4 -18 -9z"/>
<path d="M3345 4970 c-8 -12 272 -310 291 -310 7 0 21 -3 31 -7 10 -4 -27 40 -83 98 -55 57 -127 132 -159 167 -59 63 -69 70 -80 52z"/>
<path d="M3314 4939 c-9 -14 232 -255 266 -264 16 -5 -19 38 -110 134 -74 77 -138 141 -142 141 -4 0 -10 -5 -14 -11z"/>
<path d="M3281 4913 c0 -5 44 -54 97 -110 66 -69 107 -104 127 -109 26 -5 13 10 -85 110 -101 102 -141 133 -139 109z"/>
<path d="M3240 4875 l-24 -26 59 -54 c55 -49 91 -72 100 -63 2 1 -26 34 -61 71 -91 98 -79 98 17 0 116 -118 142 -117 34 1 -49 53 -92 96 -95 96 -4 0 -17 -11 -30 -25z"/>
<path d="M3189 4834 c-11 -14 -8 -20 21 -45 31 -25 86 -47 95 -37 2 2 -20 25 -50 50 -47 42 -54 46 -66 32z"/>
<path d="M3155 4801 c-6 -11 1 -16 40 -25 l30 -8 -27 21 c-29 24 -34 25 -43 12z"/>
</g>
<g id="layer106" fill="#d1dee5" stroke="none">
<path d="M7545 9408 c-255 -93 -629 -187 -945 -237 -466 -74 -714 -83 -2075 -72 -448 4 -558 2 -715 -13 -207 -19 -233 -24 -227 -40 3 -6 21 -48 41 -93 19 -46 31 -83 27 -83 -5 0 -109 -16 -232 -35 -349 -53 -620 -128 -994 -275 -88 -34 -170 -65 -182 -67 -17 -4 -43 10 -98 53 -42 33 -84 65 -94 72 -15 10 -30 7 -92 -20 -97 -42 -261 -127 -331 -171 -231 -148 -422 -295 -594 -457 -121 -114 -233 -195 -403 -291 -51 -29 -89 -54 -85 -56 5 -1 113 -23 239 -48 292 -57 275 -53 275 -70 0 -8 -17 -27 -37 -41 -226 -156 -235 -163 -211 -168 13 -3 70 -15 126 -26 57 -11 108 -22 113 -26 11 -6 12 -101 2 -107 -5 -2 -127 20 -273 49 -146 29 -266 54 -267 54 -2 0 -3 81 -3 179 0 99 -3 186 -6 195 -18 46 -24 -3 -24 -189 l0 -204 38 -10 c20 -5 79 -17 130 -27 l92 -18 0 -137 0 -138 77 -16 c43 -9 96 -20 118 -25 22 -5 67 -15 100 -21 33 -6 89 -17 125 -24 36 -7 103 -21 150 -30 47 -9 114 -23 150 -30 36 -7 126 -25 200 -39 74 -15 151 -31 170 -36 40 -11 192 -40 207 -40 6 0 30 39 53 88 150 311 172 349 210 366 20 9 45 25 55 36 16 18 17 23 4 46 -20 37 -46 52 -109 61 l-55 8 80 60 c72 54 116 80 138 83 4 1 14 7 22 14 29 26 41 34 70 49 17 9 67 36 113 62 45 25 128 67 185 92 56 26 116 53 132 61 83 38 292 102 462 144 70 17 144 35 163 40 47 13 188 38 410 73 102 16 730 14 935 -3 88 -7 199 -15 248 -19 99 -7 554 2 692 14 l90 7 -3 -91 -4 -91 30 0 c17 0 42 -4 56 -10 26 -9 26 -11 26 -114 l0 -104 53 -11 c28 -5 87 -17 130 -26 42 -8 112 -22 155 -31 42 -8 115 -22 161 -29 46 -8 109 -19 139 -26 l55 -11 -7 -55 c-5 -40 -25 -89 -79 -191 l-72 -137 -3 177 c-2 145 -5 177 -17 182 -13 5 -15 -21 -13 -201 l3 -207 70 -12 c39 -7 104 -19 145 -27 41 -9 111 -23 155 -31 44 -9 94 -19 110 -22 56 -12 280 -56 355 -70 41 -8 109 -22 150 -30 41 -8 107 -21 145 -29 39 -8 75 -14 82 -14 6 -1 210 329 452 733 l441 734 0 192 0 192 53 -7 c28 -4 59 -11 67 -15 9 -5 43 -12 77 -15 l60 -7 112 185 111 185 0 232 c0 181 -3 231 -12 227 -10 -3 -12 -53 -9 -218 l3 -214 -103 -173 -104 -172 -3 200 c-2 151 -5 200 -15 200 -9 0 -11 -48 -9 -214 l4 -213 -53 12 c-30 7 -93 21 -141 31 l-88 17 0 181 c0 100 -5 188 -10 196 -12 19 -12 29 -10 -179 1 -155 0 -163 -17 -155 -10 5 -48 9 -84 8 -52 -1 -77 -7 -114 -27 -26 -15 -49 -27 -51 -27 -2 0 -4 74 -4 165 0 118 -3 165 -12 165 -8 0 -10 -50 -5 -192 l6 -193 -39 -80 -39 -80 0 87 c-1 71 3 94 19 120 25 41 25 48 0 48 -18 0 -20 7 -20 75 0 48 -4 75 -11 75 -8 0 -10 -24 -7 -75 2 -41 0 -75 -3 -75 -9 0 -85 84 -91 100 -3 10 -25 5 -93 -20 -50 -17 -98 -34 -108 -37 -13 -4 -395 -623 -527 -853 -5 -8 -42 -74 -84 -146 -42 -73 -76 -136 -76 -142 0 -5 36 -15 80 -22 74 -12 80 -14 80 -36 0 -30 -4 -30 -175 -1 l-130 23 4 188 c2 137 0 187 -8 182 -7 -5 -11 -66 -11 -187 l0 -181 -37 -66 -38 -67 -3 178 c-3 239 -21 232 -24 -11 l-3 -188 -210 43 c-415 84 -521 105 -588 118 -37 6 -69 14 -72 17 -2 2 19 42 47 88 l51 85 -2 98 c-3 110 -5 108 81 87 131 -32 703 -139 708 -133 4 5 45 71 91 148 45 77 105 173 131 214 26 40 48 77 48 81 0 4 -37 13 -82 20 -64 9 -104 10 -173 1 -49 -6 -139 -18 -198 -25 -59 -8 -109 -15 -111 -17 -1 -2 -20 -33 -41 -68 l-38 -63 -41 6 c-23 3 -93 13 -156 21 -63 9 -141 19 -172 23 -50 8 -58 6 -58 -8 0 -9 -20 -49 -45 -89 -25 -40 -45 -74 -45 -76 0 -1 18 -5 40 -9 l40 -6 0 -85 c0 -47 -4 -85 -9 -85 -18 0 -166 21 -183 26 -9 3 -15 10 -13 17 2 7 6 93 9 192 l5 180 33 -3 c33 -3 91 -12 218 -31 36 -6 119 -17 185 -26 66 -8 134 -17 152 -19 30 -4 34 -1 68 60 20 35 38 64 41 64 3 0 94 12 202 26 229 31 205 30 308 12 l82 -14 32 54 c17 29 30 56 27 58 -3 3 -39 13 -80 24 -42 10 -80 21 -85 24 -5 3 -13 22 -16 42 -7 33 -9 35 -34 29 -78 -20 -301 -54 -687 -104 -38 -5 -144 -14 -235 -21 -91 -6 -179 -13 -196 -16 l-31 -4 -7 -183 c-4 -100 -8 -183 -9 -184 -2 -1 -158 -5 -348 -10 -239 -6 -402 -4 -530 4 -101 6 -272 17 -379 24 -343 21 -685 2 -985 -55 -570 -109 -942 -254 -1362 -533 -61 -41 -132 -92 -156 -113 -25 -22 -50 -40 -55 -40 -6 0 -20 -12 -31 -27 l-20 -28 -1 42 c0 36 -4 43 -22 48 -13 3 -75 16 -138 29 -63 13 -169 35 -235 49 -66 14 -130 27 -142 29 -24 3 -226 -139 -217 -153 3 -5 21 -11 42 -15 52 -9 291 -56 627 -124 22 -5 40 -8 41 -7 0 1 11 19 23 39 l22 37 36 -25 c20 -13 45 -24 57 -25 51 -2 61 -5 62 -14 1 -5 -38 -90 -87 -188 l-89 -178 -1 138 c-2 182 -2 183 -14 180 -6 -1 -9 -66 -6 -179 2 -98 1 -178 -2 -178 -3 0 -205 40 -449 89 -243 49 -513 103 -598 120 -85 17 -161 34 -169 37 -16 5 -14 7 159 124 l111 75 -3 68 c-2 37 -1 67 2 67 3 0 47 -9 99 -20 l93 -20 32 23 c17 12 120 89 229 170 110 82 204 150 210 153 7 2 79 -11 162 -30 136 -30 151 -32 162 -17 7 9 13 28 13 44 0 26 30 67 49 67 5 0 50 35 99 78 171 148 323 246 548 353 302 143 523 201 1004 263 63 8 158 21 210 28 143 20 682 16 960 -6 245 -20 354 -21 830 -6 384 12 501 21 836 66 313 41 473 71 677 125 210 57 202 55 194 35 -4 -9 -37 -63 -73 -119 -97 -147 -215 -339 -212 -342 2 -2 57 -13 123 -24 66 -12 130 -24 142 -26 19 -5 43 30 209 307 103 172 192 319 199 326 7 8 66 33 132 56 192 69 194 70 233 139 19 34 36 65 38 68 2 4 -23 10 -54 14 -95 12 -52 -22 -464 365 l-136 128 -79 -30z m1076 -1023 c-1 -99 -3 -181 -4 -182 -2 -1 -299 63 -412 89 l-60 14 39 14 c34 13 43 25 82 102 24 49 48 88 52 88 4 0 24 -5 45 -11 54 -15 142 4 192 40 68 50 69 49 66 -154z m-421 45 l0 -80 -35 -17 c-19 -9 -37 -15 -39 -12 -2 2 -6 28 -7 57 -3 50 -1 54 28 72 17 10 34 28 38 39 11 37 15 23 15 -59z m-62 -139 c20 -6 98 -24 172 -40 218 -49 301 -69 305 -73 3 -2 -188 -324 -423 -716 l-427 -712 -3 175 c-1 105 -6 175 -12 175 -6 0 -10 -72 -10 -186 l0 -186 -26 6 c-23 6 -463 94 -912 182 -106 21 -197 41 -203 45 -10 6 44 117 123 256 l23 40 210 -43 c116 -24 217 -43 226 -43 8 -1 31 20 50 47 18 26 63 83 99 127 61 75 65 83 65 130 0 48 12 71 250 467 l250 417 100 34 100 34 3 -63 3 -63 37 -10z m-1993 -591 c3 -5 -12 -40 -34 -77 l-41 -68 0 78 0 77 34 0 c19 0 38 -4 41 -10z m1028 -237 c4 -2 7 -64 7 -137 l0 -134 -72 14 c-276 53 -354 70 -360 79 -4 5 -8 27 -8 48 0 32 3 37 18 33 9 -2 55 -12 102 -21 47 -9 92 -18 101 -21 12 -3 30 17 64 76 l47 81 47 -7 c25 -4 49 -8 54 -11z m140 -23 c39 -8 55 -15 50 -23 -6 -11 -135 -179 -155 -201 -4 -6 -8 48 -8 118 l0 128 28 -6 c15 -3 53 -10 85 -16z m-6398 -304 c139 -25 139 -20 -2 -116 -69 -47 -132 -89 -140 -94 -14 -8 -15 4 -10 100 4 60 7 115 7 123 0 10 9 12 33 8 17 -3 68 -13 112 -21z"/>
<path d="M11808 7010 c-4 -8 -9 -103 -10 -210 l-3 -195 -339 -565 c-186 -311 -341 -567 -343 -570 -3 -3 -4 78 -3 180 3 211 3 210 -10 190 -5 -8 -10 -99 -10 -202 0 -104 -3 -188 -7 -188 -7 0 -109 17 -280 47 l-33 6 0 198 c0 121 -4 200 -10 204 -7 4 -10 -60 -10 -184 l0 -190 -37 16 c-45 18 -118 11 -174 -18 l-39 -19 0 165 c0 116 -3 164 -11 160 -6 -5 -10 -42 -9 -99 1 -50 1 -136 1 -191 l-1 -100 -148 -48 c-81 -26 -151 -47 -156 -47 -5 0 -7 77 -3 184 3 101 3 186 1 189 -3 3 -20 1 -37 -4 -36 -11 -339 -90 -462 -120 -165 -42 -202 -50 -275 -65 -41 -8 -81 -17 -88 -19 -9 -3 1 -31 33 -95 25 -49 45 -94 45 -99 0 -5 -28 -56 -61 -113 -34 -57 -71 -119 -81 -138 -11 -19 -31 -54 -44 -76 -29 -49 -39 -36 117 -140 255 -169 544 -278 863 -324 43 -7 82 -8 86 -3 4 4 83 134 175 288 228 379 234 387 251 381 7 -3 53 -10 101 -17 49 -6 91 -14 95 -18 4 -4 -63 -124 -150 -267 -86 -143 -332 -551 -547 -907 l-390 -646 -3 180 c-1 114 -6 178 -12 174 -6 -4 -10 -83 -10 -196 0 -104 -3 -189 -7 -189 -5 0 -51 9 -103 20 -52 11 -160 34 -240 50 -80 16 -278 57 -440 90 -162 34 -326 67 -365 75 -38 8 -214 44 -390 80 -176 36 -374 77 -440 90 -66 14 -264 54 -440 90 -176 36 -345 71 -375 76 -30 6 -58 13 -62 15 -7 4 111 203 460 777 l182 298 -2 197 -2 197 -6 -195 -5 -195 -37 -60 -38 -60 0 173 c0 108 -4 172 -10 172 -6 0 -10 -65 -10 -175 l0 -175 -97 6 c-54 3 -114 10 -134 15 -20 5 -176 13 -346 19 -489 16 -745 -4 -1093 -84 -192 -43 -263 -64 -312 -93 -5 -2 -8 59 -8 136 0 119 2 141 15 141 21 0 19 6 -11 46 -15 19 -25 36 -23 38 2 2 40 15 84 29 127 42 429 107 640 138 134 21 828 18 1090 -4 110 -9 201 -14 203 -9 1 4 22 38 46 76 l44 70 333 2 c408 3 580 19 1109 104 332 53 446 77 771 160 380 96 365 92 567 160 89 30 161 59 158 65 -25 66 164 130 238 81 21 -13 365 -90 372 -83 5 5 457 764 470 788 l13 27 -92 16 c-51 9 -227 38 -392 65 l-300 49 -120 -72 c-371 -223 -715 -367 -1250 -521 -572 -164 -959 -217 -1605 -219 l-365 -1 -120 -283 -120 -282 -105 7 c-169 11 -633 8 -795 -5 -290 -24 -623 -80 -868 -145 l-127 -34 -78 69 c-57 51 -82 68 -97 64 -11 -3 -46 -11 -77 -18 l-57 -12 -133 126 c-73 69 -160 150 -194 181 l-61 56 -154 -63 c-85 -35 -170 -70 -189 -78 l-35 -15 95 -69 c52 -38 194 -142 315 -232 l220 -162 55 6 c30 3 67 8 83 10 26 5 27 4 27 -41 0 -63 20 -106 69 -144 l42 -33 132 37 c73 21 138 40 146 43 12 5 13 -17 8 -137 l-6 -142 31 -34 c21 -25 26 -36 16 -39 -58 -20 -289 -86 -297 -86 -7 0 -11 52 -11 155 0 108 3 155 11 155 8 0 8 5 -1 15 -7 8 -16 15 -21 15 -4 0 -8 -83 -9 -184 0 -167 1 -186 17 -195 10 -5 16 -11 13 -14 -10 -8 -177 -97 -184 -97 -3 0 -6 74 -6 165 0 103 -4 165 -10 165 -6 0 -10 -62 -10 -165 0 -91 -3 -165 -7 -165 -5 0 -35 11 -68 25 l-60 26 4 169 c2 119 0 170 -8 170 -7 0 -11 -42 -11 -129 0 -212 2 -207 -93 -269 l-81 -52 -60 10 c-34 6 -85 16 -113 22 l-53 11 0 45 c0 39 2 43 18 36 9 -5 54 -9 99 -9 71 0 85 3 104 22 28 27 19 50 -26 68 -43 19 -89 18 -140 -1 -22 -8 -47 -16 -55 -18 -11 -2 -16 -19 -18 -65 -3 -59 -4 -63 -25 -58 -118 26 -480 97 -495 97 -14 0 -817 -492 -840 -514 -2 -2 17 -18 42 -36 25 -17 46 -35 46 -40 0 -5 -32 -28 -71 -51 l-72 -43 -41 23 c-35 19 -38 20 -16 2 14 -11 41 -29 60 -40 l35 -20 260 164 c468 295 436 272 425 301 -6 14 -10 27 -10 30 0 11 46 1 194 -42 155 -44 161 -45 188 -29 25 14 41 15 146 5 64 -6 123 -13 130 -15 7 -3 55 -7 107 -11 53 -3 110 -10 128 -15 66 -19 67 -18 67 76 l0 86 43 18 c23 11 57 31 76 45 40 30 51 31 94 12 111 -51 101 -51 196 -2 136 70 150 79 153 105 2 19 12 27 53 38 62 17 179 51 223 65 30 9 32 12 32 58 l0 49 58 16 c31 9 73 20 92 26 51 14 262 58 360 74 192 32 312 38 730 32 504 -7 680 -16 680 -33 0 -4 -224 -370 -441 -722 l-94 -154 -6 174 c-3 95 -6 175 -7 178 -1 3 -7 -2 -12 -10 -7 -12 -3 -407 4 -417 3 -3 208 -45 381 -78 72 -14 144 -29 160 -34 17 -5 82 -19 145 -30 63 -12 131 -26 150 -31 19 -5 62 -15 95 -21 33 -6 89 -17 125 -25 60 -12 109 -22 295 -59 251 -50 334 -67 365 -75 19 -5 85 -18 145 -30 61 -11 126 -25 145 -30 32 -9 84 -19 430 -86 69 -14 141 -29 160 -34 19 -5 95 -21 169 -35 147 -28 143 -29 178 32 10 18 122 204 248 413 127 209 235 388 240 398 38 68 101 168 107 170 5 2 8 9 8 16 0 6 16 35 35 65 19 29 35 54 35 57 0 4 93 157 100 164 3 3 16 25 29 50 13 25 30 52 36 60 7 8 21 31 30 50 10 19 21 37 25 40 4 3 15 21 25 40 10 19 26 46 35 60 10 14 30 47 46 74 16 28 39 66 51 85 52 85 53 88 53 233 0 146 2 153 48 129 9 -5 42 -12 73 -15 l57 -7 69 118 c85 145 84 144 212 354 57 95 109 181 115 193 6 12 23 39 36 61 37 60 44 73 96 160 25 44 62 104 80 132 19 29 34 57 34 62 0 5 6 16 13 23 6 7 20 29 30 48 16 31 18 59 15 245 -2 116 -6 203 -10 195z m-949 -1542 l51 -11 0 -134 0 -133 -27 0 c-66 0 -372 54 -532 93 l-174 42 159 53 c158 52 159 52 202 37 65 -23 161 -3 202 40 26 28 46 30 119 13z m-5359 -789 c0 -18 -2 -19 -15 -9 -8 7 -15 16 -15 21 0 5 7 9 15 9 9 0 15 -9 15 -21z"/>
</g>
<g id="layer107" fill="#e7e1da" stroke="none">
<path d="M7545 9408 c-255 -93 -629 -187 -945 -237 -466 -74 -714 -83 -2075 -72 -448 4 -558 2 -715 -13 -207 -19 -233 -24 -227 -40 3 -6 21 -48 41 -93 19 -46 31 -83 27 -83 -5 0 -109 -16 -232 -35 -349 -53 -620 -128 -994 -275 -88 -34 -170 -65 -182 -67 -17 -4 -43 10 -98 53 -42 33 -84 65 -94 72 -15 10 -30 7 -92 -20 -97 -42 -261 -127 -331 -171 -231 -148 -422 -295 -594 -457 -121 -114 -233 -195 -403 -291 -51 -29 -89 -54 -85 -56 5 -1 113 -23 239 -48 292 -57 275 -53 275 -70 0 -8 -17 -27 -37 -41 -226 -156 -235 -163 -211 -168 13 -3 70 -15 126 -26 57 -11 108 -22 113 -26 11 -6 12 -101 2 -107 -5 -2 -127 20 -273 49 -146 29 -266 54 -267 54 -2 0 -3 81 -3 179 0 99 -3 186 -6 195 -18 46 -24 -3 -24 -189 l0 -204 38 -10 c20 -5 79 -17 130 -27 l92 -18 0 -137 0 -138 77 -16 c43 -9 96 -20 118 -25 22 -5 67 -15 100 -21 33 -6 89 -17 125 -24 36 -7 103 -21 150 -30 47 -9 114 -23 150 -30 36 -7 126 -25 200 -39 74 -15 151 -31 170 -36 40 -11 192 -40 207 -40 6 0 30 39 53 88 150 311 172 349 210 366 20 9 45 25 55 36 16 18 17 23 4 46 -23 43 -61 61 -139 63 -24 1 -24 2 13 36 21 19 41 35 45 35 4 0 21 11 37 25 25 22 94 58 103 55 1 0 9 5 17 12 29 26 41 34 70 49 17 9 67 36 113 62 45 25 128 67 185 92 56 26 116 53 132 61 83 38 292 102 462 144 70 17 144 35 163 40 47 13 188 38 410 73 102 16 730 14 935 -3 88 -7 199 -15 248 -19 99 -7 554 2 692 14 l90 7 -3 -91 -4 -91 30 0 c17 0 42 -4 56 -10 26 -9 26 -11 26 -114 l0 -104 53 -11 c28 -5 87 -17 130 -26 42 -8 112 -22 155 -31 42 -8 115 -22 161 -29 46 -8 109 -19 139 -26 l55 -11 -7 -55 c-5 -40 -25 -89 -79 -191 l-72 -137 -3 177 c-2 145 -5 177 -17 182 -13 5 -15 -21 -13 -201 l3 -207 70 -12 c39 -7 104 -19 145 -27 41 -9 111 -23 155 -31 44 -9 94 -19 110 -22 56 -12 280 -56 355 -70 41 -8 109 -22 150 -30 41 -8 107 -21 145 -29 39 -8 75 -14 82 -14 6 -1 210 329 452 733 l441 734 0 192 0 192 53 -7 c28 -4 59 -11 67 -15 9 -5 43 -12 77 -15 l60 -7 112 185 111 185 0 232 c0 181 -3 231 -12 227 -10 -3 -12 -53 -9 -218 l3 -214 -103 -173 -104 -172 -3 200 c-2 151 -5 200 -15 200 -9 0 -11 -48 -9 -214 l4 -213 -53 12 c-30 7 -93 21 -141 31 l-88 17 0 181 c0 100 -5 188 -10 196 -12 19 -12 29 -10 -179 1 -155 0 -163 -17 -155 -10 5 -48 9 -84 8 -52 -1 -77 -7 -114 -27 -26 -15 -49 -27 -51 -27 -2 0 -4 74 -4 165 0 118 -3 165 -12 165 -8 0 -10 -50 -5 -192 l6 -193 -39 -80 -39 -80 0 87 c-1 71 3 94 19 120 25 41 25 48 0 48 -18 0 -20 7 -20 75 0 48 -4 75 -11 75 -8 0 -10 -24 -7 -75 2 -41 0 -75 -3 -75 -9 0 -85 84 -91 100 -3 10 -25 5 -93 -20 -50 -17 -98 -34 -108 -37 -13 -4 -395 -623 -527 -853 -5 -8 -42 -74 -84 -146 -42 -73 -76 -136 -76 -142 0 -5 36 -15 80 -22 74 -12 80 -14 80 -36 0 -30 -5 -30 -175 -1 l-130 22 4 189 c2 137 0 187 -8 182 -7 -5 -11 -66 -11 -187 l0 -181 -37 -66 -38 -67 -3 178 c-1 107 -6 177 -12 177 -6 0 -10 -72 -10 -188 l0 -189 -92 18 c-51 10 -106 21 -123 24 -16 2 -70 14 -120 25 -103 23 -368 76 -468 95 -37 6 -69 14 -72 17 -2 2 19 42 47 88 l51 85 -2 98 c-3 110 -5 108 81 87 131 -32 703 -139 708 -133 4 5 45 71 91 148 45 77 105 173 131 214 26 40 48 77 48 81 0 4 -37 13 -82 20 -64 9 -104 10 -173 1 -49 -6 -139 -18 -198 -25 -59 -8 -109 -15 -111 -17 -1 -2 -20 -33 -41 -68 l-38 -63 -41 6 c-23 3 -93 13 -156 21 -63 9 -141 19 -172 23 -50 8 -58 6 -58 -8 0 -9 -20 -49 -45 -89 -25 -40 -45 -74 -45 -76 0 -1 18 -5 40 -9 l40 -6 0 -85 0 -84 -52 3 c-29 2 -64 6 -78 9 -14 3 -37 8 -52 11 -16 4 -25 11 -23 19 2 6 6 93 9 192 l5 180 33 -3 c33 -3 91 -12 218 -31 36 -6 119 -17 185 -26 66 -8 134 -17 152 -19 30 -4 34 -1 68 60 20 35 38 64 41 64 3 0 94 12 202 26 229 31 205 30 308 12 l82 -14 32 54 c17 29 30 56 27 58 -3 3 -39 13 -80 24 -42 10 -80 21 -85 24 -5 3 -13 22 -16 42 -7 33 -9 35 -34 29 -78 -20 -301 -54 -687 -104 -38 -5 -144 -14 -235 -21 -91 -6 -179 -13 -196 -16 l-31 -4 -7 -183 c-4 -100 -8 -183 -9 -184 -2 -1 -158 -5 -348 -10 -239 -6 -402 -4 -530 4 -101 6 -272 17 -379 24 -343 21 -685 2 -985 -55 -607 -116 -993 -274 -1455 -597 -25 -17 -59 -44 -75 -60 -17 -16 -36 -29 -42 -29 -6 0 -21 -12 -32 -27 l-20 -28 -1 42 c0 36 -4 43 -22 48 -13 3 -75 16 -138 29 -63 13 -169 35 -235 49 -66 14 -130 27 -142 29 -24 3 -226 -139 -217 -153 3 -5 21 -11 42 -15 52 -9 291 -56 627 -124 22 -5 40 -8 41 -7 0 1 11 19 23 39 l22 37 36 -25 c20 -13 45 -24 57 -25 51 -2 61 -5 62 -14 1 -5 -38 -90 -87 -188 l-89 -178 -1 138 c-2 182 -2 183 -14 180 -6 -1 -9 -66 -6 -179 2 -98 1 -178 -2 -178 -3 0 -205 40 -449 89 -243 49 -513 103 -598 120 -85 17 -161 34 -169 37 -16 5 -14 7 159 124 l111 75 -3 68 c-2 37 -1 67 2 67 3 0 47 -9 99 -20 l93 -20 32 23 c17 12 120 89 229 170 110 82 204 150 210 153 7 2 79 -11 162 -30 136 -30 151 -32 162 -17 7 9 13 28 13 44 0 26 30 67 49 67 5 0 50 35 99 78 171 148 323 246 548 353 302 143 523 201 1004 263 63 8 158 21 210 28 143 20 682 16 960 -6 245 -20 354 -21 830 -6 384 12 501 21 836 66 313 41 473 71 677 125 210 57 202 55 194 35 -4 -9 -37 -63 -73 -119 -97 -147 -215 -339 -212 -342 2 -2 57 -13 123 -24 66 -12 130 -24 142 -26 19 -5 43 30 209 307 103 172 192 319 199 326 7 8 66 33 132 56 192 69 194 70 233 139 19 34 36 65 38 68 2 4 -23 10 -54 14 -95 12 -52 -22 -464 365 l-136 128 -79 -30z m1076 -1023 c-1 -99 -3 -181 -4 -182 -2 -1 -299 63 -412 89 l-60 14 39 14 c34 13 43 25 82 102 24 49 48 88 52 88 4 0 24 -5 45 -11 54 -15 142 4 192 40 68 50 69 49 66 -154z m-421 45 l0 -80 -35 -17 c-19 -9 -37 -15 -39 -12 -2 2 -6 28 -7 57 -3 50 -1 54 28 72 17 10 34 28 38 39 11 37 15 23 15 -59z m-62 -139 c20 -6 98 -24 172 -40 218 -49 301 -69 305 -73 3 -2 -188 -324 -423 -716 l-427 -712 -3 175 c-1 105 -6 175 -12 175 -6 0 -10 -72 -10 -186 l0 -186 -26 6 c-23 6 -463 94 -912 182 -106 21 -197 41 -203 45 -10 6 44 117 123 256 l23 40 210 -43 c116 -24 217 -43 226 -43 8 -1 31 20 50 47 18 26 63 83 99 127 61 75 65 83 65 130 0 48 12 71 250 467 l250 417 100 34 100 34 3 -63 3 -63 37 -10z m-1993 -591 c3 -5 -12 -40 -34 -77 l-41 -68 0 78 0 77 34 0 c19 0 38 -4 41 -10z m1028 -237 c4 -2 7 -64 7 -137 l0 -134 -72 14 c-276 53 -354 70 -360 79 -4 5 -8 27 -8 48 0 32 3 37 18 33 9 -2 55 -12 102 -21 47 -9 92 -18 101 -21 12 -3 30 17 64 76 l47 81 47 -7 c25 -4 49 -8 54 -11z m140 -23 c39 -8 55 -15 50 -23 -6 -11 -135 -179 -155 -201 -4 -6 -8 48 -8 118 l0 128 28 -6 c15 -3 53 -10 85 -16z m-5035 -290 c-4 -63 -28 -65 -28 -2 0 27 3 52 7 55 14 15 24 -12 21 -53z m-1363 -14 c139 -25 139 -20 -2 -116 -69 -47 -132 -89 -140 -94 -14 -8 -15 4 -10 100 4 60 7 115 7 123 0 10 9 12 33 8 17 -3 68 -13 112 -21z"/>
<path d="M8373 9016 c-59 -28 -77 -61 -47 -83 28 -21 148 -13 199 13 51 27 61 68 20 84 -45 17 -117 11 -172 -14z"/>
<path d="M7146 7996 c-59 -95 -59 -99 -11 -107 22 -3 85 -14 139 -23 59 -10 103 -13 108 -8 14 14 88 143 88 153 0 5 -3 9 -7 9 -10 0 -175 28 -230 39 l-43 8 -44 -71z"/>
<path d="M2142 7590 c-35 -16 -43 -24 -40 -42 4 -31 43 -48 109 -48 67 0 116 15 129 40 14 27 13 28 -22 50 -43 26 -119 26 -176 0z"/>
<path d="M1715 7506 c-134 -97 -176 -129 -173 -131 3 -3 156 -36 393 -86 50 -10 100 -21 113 -24 22 -5 22 -4 22 95 l0 100 -27 6 c-16 3 -34 8 -42 10 -24 8 -242 54 -249 53 -4 0 -20 -11 -37 -23z"/>
<path d="M11155 7064 c-44 -35 -137 -103 -207 -151 -70 -48 -126 -89 -123 -91 3 -3 175 -33 382 -68 286 -47 381 -59 389 -51 16 17 195 320 191 324 -3 2 -365 70 -527 98 -19 3 -43 -11 -105 -61z"/>
<path d="M11808 7010 c-4 -8 -9 -103 -10 -210 l-3 -195 -339 -565 c-186 -311 -341 -567 -343 -570 -3 -3 -4 78 -3 180 3 211 3 210 -10 190 -5 -8 -10 -99 -10 -202 0 -104 -3 -188 -7 -188 -7 0 -109 17 -280 47 l-33 6 0 198 c0 121 -4 200 -10 204 -7 4 -10 -60 -10 -184 l0 -190 -37 16 c-45 18 -118 11 -174 -18 l-39 -19 0 165 c0 116 -3 164 -11 160 -6 -5 -10 -42 -9 -99 1 -50 1 -136 1 -191 l-1 -100 -148 -48 c-81 -26 -151 -47 -156 -47 -5 0 -7 77 -3 184 3 101 3 186 1 189 -3 3 -20 1 -37 -4 -36 -11 -339 -90 -462 -120 -165 -42 -202 -50 -275 -65 -41 -8 -81 -17 -88 -19 -9 -3 1 -31 33 -95 25 -49 45 -94 45 -99 0 -5 -28 -56 -61 -113 -34 -57 -71 -119 -81 -138 -11 -19 -31 -54 -44 -76 -29 -49 -39 -36 117 -140 255 -169 544 -278 863 -324 43 -7 82 -8 86 -3 4 4 83 134 175 288 228 379 234 387 251 381 7 -3 53 -10 101 -17 49 -6 91 -14 95 -18 4 -4 -63 -124 -150 -267 -86 -143 -332 -551 -547 -907 l-390 -646 -3 180 c-1 114 -6 178 -12 174 -6 -4 -10 -83 -10 -196 0 -104 -3 -189 -7 -189 -5 0 -51 9 -103 20 -52 11 -160 34 -240 50 -80 16 -278 57 -440 90 -162 34 -326 67 -365 75 -38 8 -214 44 -390 80 -176 36 -374 77 -440 90 -66 14 -264 54 -440 90 -176 36 -345 71 -375 76 -30 6 -58 13 -62 15 -7 4 111 203 460 777 l182 298 -2 197 -2 197 -6 -195 -5 -195 -37 -60 -38 -60 0 173 c0 108 -4 172 -10 172 -6 0 -10 -65 -10 -175 l0 -175 -97 6 c-54 3 -114 10 -134 15 -20 5 -176 13 -346 19 -489 16 -746 -4 -1093 -84 -160 -36 -243 -59 -277 -76 -45 -22 -41 -35 -45 143 -3 106 -2 117 14 117 24 0 23 7 -7 42 -14 16 -25 33 -25 37 0 25 436 129 725 172 134 21 828 18 1090 -4 110 -9 201 -14 203 -9 1 4 22 38 46 76 l44 70 333 2 c408 3 580 19 1109 104 332 53 446 77 771 160 380 96 365 92 567 160 89 30 161 59 158 65 -25 66 164 130 238 81 21 -13 365 -90 372 -83 5 5 457 764 470 788 l13 27 -92 16 c-51 9 -227 38 -392 65 l-300 49 -120 -72 c-371 -223 -715 -367 -1250 -521 -572 -164 -959 -217 -1605 -219 l-365 -1 -120 -283 -120 -282 -105 7 c-169 11 -633 8 -795 -5 -290 -24 -623 -80 -868 -145 l-127 -34 -78 69 c-57 51 -82 68 -97 64 -11 -3 -46 -11 -77 -18 l-57 -12 -133 126 c-73 69 -160 150 -194 181 l-61 56 -154 -63 c-85 -35 -170 -70 -189 -78 l-35 -15 95 -69 c52 -38 194 -142 315 -232 l220 -162 55 6 c30 3 67 8 83 10 26 5 27 4 27 -41 0 -63 20 -106 69 -144 l42 -33 132 37 c73 21 138 40 146 43 12 5 13 -17 8 -137 l-6 -142 31 -34 c21 -25 26 -36 16 -39 -60 -20 -259 -79 -281 -83 l-27 -5 0 156 c0 109 3 156 11 156 8 0 8 5 -1 15 -7 8 -16 15 -21 15 -4 0 -8 -83 -9 -184 0 -167 1 -186 17 -195 10 -5 16 -11 13 -14 -10 -8 -177 -97 -184 -97 -3 0 -6 74 -6 165 0 103 -4 165 -10 165 -6 0 -10 -62 -10 -165 0 -91 -3 -165 -7 -165 -5 0 -35 11 -68 25 l-60 26 4 169 c2 119 0 170 -8 170 -7 0 -11 -42 -11 -129 0 -212 2 -207 -93 -269 l-81 -52 -60 10 c-34 6 -85 16 -113 22 l-53 11 0 45 c0 39 2 43 18 36 9 -5 54 -9 99 -9 71 0 85 3 104 22 28 27 19 50 -26 68 -43 19 -89 18 -140 -1 -22 -8 -47 -16 -55 -18 -11 -2 -16 -19 -18 -65 -3 -59 -4 -63 -25 -58 -118 26 -480 97 -495 97 -14 0 -817 -492 -840 -514 -2 -2 17 -18 42 -36 25 -17 46 -35 46 -40 0 -5 -32 -28 -71 -51 l-72 -43 -41 23 c-35 19 -38 20 -16 2 14 -11 41 -29 60 -40 l35 -20 260 164 c468 295 436 272 425 301 -6 14 -10 27 -10 30 0 11 46 1 194 -42 155 -44 161 -45 188 -29 25 14 41 15 146 5 64 -6 123 -13 130 -15 7 -3 55 -7 107 -11 53 -3 110 -10 128 -15 66 -19 67 -18 67 76 l0 86 43 18 c23 11 57 31 76 45 40 30 51 31 94 12 111 -51 101 -51 196 -2 136 70 150 79 153 105 2 19 12 27 53 38 62 17 179 51 223 65 30 9 32 12 32 58 l0 49 58 16 c31 9 73 20 92 26 51 14 262 58 360 74 192 32 312 38 730 32 504 -7 680 -16 680 -33 0 -4 -224 -370 -441 -722 l-94 -154 -6 174 c-3 95 -6 175 -7 178 -1 3 -7 -2 -12 -10 -7 -12 -3 -407 4 -417 3 -3 208 -45 381 -78 72 -14 144 -29 160 -34 17 -5 82 -19 145 -30 63 -12 131 -26 150 -31 19 -5 62 -15 95 -21 33 -6 89 -17 125 -25 60 -12 109 -22 295 -59 251 -50 334 -67 365 -75 19 -5 85 -18 145 -30 61 -11 126 -25 145 -30 32 -9 84 -19 430 -86 69 -14 141 -29 160 -34 19 -5 95 -21 169 -35 147 -28 143 -29 178 32 10 18 122 204 248 413 127 209 235 388 240 398 38 68 101 168 107 170 5 2 8 9 8 16 0 6 16 35 35 65 19 29 35 54 35 57 0 4 93 157 100 164 3 3 16 25 29 50 13 25 30 52 36 60 7 8 21 31 30 50 10 19 21 37 25 40 4 3 15 21 25 40 10 19 26 46 35 60 10 14 30 47 46 74 16 28 39 66 51 85 52 85 53 88 53 233 0 146 2 153 48 129 9 -5 42 -12 73 -15 l57 -7 69 118 c85 145 84 144 212 354 57 95 109 181 115 193 6 12 23 39 36 61 37 60 44 73 96 160 25 44 62 104 80 132 19 29 34 57 34 62 0 5 6 16 13 23 6 7 20 29 30 48 16 31 18 59 15 245 -2 116 -6 203 -10 195z m-949 -1542 l51 -11 0 -134 0 -133 -27 0 c-66 0 -372 54 -532 93 l-174 42 159 53 c158 52 159 52 202 37 65 -23 161 -3 202 40 26 28 46 30 119 13z m-5359 -789 c0 -18 -2 -19 -15 -9 -8 7 -15 16 -15 21 0 5 7 9 15 9 9 0 15 -9 15 -21z"/>
<path d="M4675 6128 c-23 -5 -89 -7 -152 -4 -178 10 -286 -14 -538 -121 -168 -71 -311 -143 -456 -229 -132 -78 -559 -356 -559 -364 0 -3 123 -64 273 -136 l273 -130 139 93 c487 325 724 429 1515 660 47 14 86 26 88 28 2 2 -25 48 -60 104 -46 73 -67 100 -78 95 -8 -3 -58 -8 -110 -11 -72 -4 -110 -2 -152 11 -62 18 -122 19 -183 4z"/>
<path d="M6350 6023 c-30 -1 -115 -8 -187 -14 l-133 -12 6 -26 c4 -14 19 -75 34 -136 14 -60 42 -175 61 -253 l34 -144 75 7 c41 4 275 9 520 10 l445 3 32 74 c17 40 41 93 51 118 11 25 49 113 85 196 l64 151 -111 7 c-61 4 -163 11 -226 16 -104 8 -613 10 -750 3z"/>
<path d="M10550 5928 c-34 -17 -46 -30 -48 -49 -4 -36 40 -54 112 -46 65 7 112 29 122 59 18 56 -100 79 -186 36z"/>
<path d="M3116 4772 c-3 -5 -47 -41 -98 -79 -407 -306 -898 -567 -1473 -781 -202 -76 -569 -192 -751 -237 -132 -34 -549 -115 -590 -115 -47 -1 -46 -8 40 -264 46 -136 86 -249 88 -251 9 -8 336 -70 355 -67 16 2 34 23 58 63 19 33 35 64 35 68 0 4 -77 23 -171 41 -156 31 -172 36 -180 58 -23 60 -20 62 136 96 39 8 135 29 214 47 164 36 170 36 239 19 49 -13 55 -12 294 54 133 38 292 81 351 98 89 24 126 41 210 94 55 35 105 64 109 64 21 0 271 106 368 156 130 66 173 105 196 177 16 53 18 55 117 113 56 32 106 61 112 63 5 2 27 15 48 28 42 27 38 28 150 -44 37 -24 71 -43 76 -43 5 0 32 15 60 33 27 17 98 63 158 100 399 251 488 309 487 317 -1 6 -2 16 -2 23 -1 8 -30 21 -69 30 -38 10 -120 31 -183 47 -63 17 -169 44 -235 61 -66 18 -125 33 -131 36 -7 2 -15 0 -18 -5z"/>
<path d="M4680 4236 l0 -85 53 -5 c28 -3 126 -10 217 -16 91 -6 190 -13 221 -16 l56 -6 32 43 c17 24 31 46 31 49 0 4 -42 14 -92 23 -153 26 -482 88 -500 93 -16 5 -18 -3 -18 -80z"/>
<path d="M3735 4224 c5 -28 -3 -34 -346 -249 -192 -121 -355 -222 -360 -223 -5 -2 -50 22 -100 53 l-90 57 -117 -67 c-64 -38 -129 -75 -144 -84 -19 -11 -33 -32 -44 -65 -34 -100 -158 -182 -449 -297 -97 -38 -194 -85 -245 -117 -91 -58 -65 -50 -553 -187 l-238 -67 -65 15 -66 15 -247 -55 c-135 -29 -251 -55 -257 -58 -8 -2 -9 -15 -5 -36 l7 -33 169 -34 c94 -19 174 -37 179 -42 4 -4 -11 -40 -34 -79 -24 -40 -40 -74 -38 -77 4 -4 327 -67 387 -76 20 -2 31 8 67 67 23 38 40 73 38 76 -2 4 -48 15 -102 24 -53 10 -101 21 -105 25 -8 7 96 180 108 180 4 0 82 20 175 45 93 25 173 45 177 45 5 0 49 -52 98 -115 50 -63 94 -115 100 -114 5 0 48 13 93 27 l84 27 -91 115 c-50 63 -91 120 -91 125 0 6 75 35 168 64 100 32 280 102 447 175 154 68 346 151 427 186 l147 63 71 -42 71 -42 64 37 c36 21 65 42 65 46 0 4 -20 21 -45 38 -25 17 -45 33 -45 35 0 4 54 35 391 223 118 66 283 158 368 206 85 47 163 86 175 86 18 0 246 -32 409 -58 l57 -9 0 54 c0 29 -3 53 -7 53 -5 0 -68 7 -142 15 -120 14 -137 14 -157 0 -13 -8 -30 -15 -38 -15 -13 0 -278 74 -312 87 -10 4 -13 -2 -9 -23z"/>
<path d="M4420 4144 c0 -14 3 -15 18 -3 9 7 19 15 21 16 2 2 -5 3 -17 3 -14 0 -22 -6 -22 -16z"/>
<path d="M4477 4138 c-21 -6 -45 -21 -54 -35 -15 -22 -15 -26 0 -40 21 -21 102 -33 156 -23 74 13 101 63 49 91 -29 16 -107 19 -151 7z"/>
<path d="M2852 3876 c16 -8 34 -18 40 -21 7 -4 2 3 -12 14 -14 11 -32 21 -40 21 -8 0 -3 -7 12 -14z"/>
<path d="M2745 3850 c-52 -24 -90 -41 -325 -143 -107 -47 -220 -96 -250 -110 -95 -43 -260 -105 -382 -143 -65 -20 -118 -41 -118 -46 0 -14 124 -167 135 -168 6 0 34 16 62 35 29 19 56 35 61 35 18 0 245 95 357 150 153 75 198 112 226 190 l21 59 134 77 c74 42 134 78 134 80 0 7 -14 3 -55 -16z"/>
<path d="M129 3325 c-2 -132 -1 -247 3 -255 4 -8 44 -128 89 -267 l82 -252 41 -6 c23 -4 55 -11 71 -16 17 -5 91 -21 165 -35 74 -15 164 -32 200 -39 36 -7 92 -18 125 -24 33 -6 76 -16 95 -21 19 -5 87 -19 150 -30 63 -12 135 -25 160 -31 44 -10 239 -49 375 -75 278 -53 476 -93 515 -104 19 -5 87 -19 150 -30 63 -11 131 -25 150 -30 19 -5 60 -14 90 -20 30 -5 87 -17 125 -25 39 -8 104 -22 145 -30 41 -8 95 -19 119 -24 24 -5 46 -13 50 -18 11 -18 54 -35 158 -64 57 -16 149 -42 206 -58 56 -16 145 -41 197 -56 52 -14 104 -30 115 -35 11 -5 38 -14 60 -19 22 -5 63 -16 90 -25 28 -8 85 -24 127 -36 66 -19 84 -29 119 -67 l42 -46 66 12 c36 6 116 16 176 22 118 11 188 18 785 84 80 9 183 20 230 25 47 5 108 12 135 15 52 5 76 25 107 84 7 14 19 32 26 39 6 7 12 18 12 24 0 5 13 28 29 51 16 23 83 132 149 242 67 110 125 205 131 212 6 7 11 15 11 18 0 3 22 41 50 84 27 43 50 83 50 89 0 7 3 12 8 12 4 0 17 19 29 43 20 38 23 64 30 280 4 130 5 237 2 237 -16 0 -21 -49 -26 -250 l-6 -215 -77 -125 c-43 -69 -148 -242 -235 -385 -223 -369 -227 -375 -233 -375 -3 0 -2 95 2 210 5 126 4 210 -2 210 -9 0 -22 -214 -22 -367 0 -78 -1 -83 -22 -87 -25 -5 -167 -22 -263 -31 -33 -3 -98 -10 -145 -15 -194 -22 -366 -41 -550 -60 -107 -11 -229 -25 -270 -30 -41 -5 -96 -11 -123 -14 l-47 -6 7 203 c7 219 -5 336 -18 172 -4 -49 -7 -148 -8 -220 l-1 -130 -26 27 -26 26 -2 222 c-1 169 -4 224 -13 227 -10 4 -13 -44 -13 -217 0 -206 -1 -221 -17 -216 -10 2 -63 18 -118 35 -55 16 -179 52 -275 80 -96 27 -247 71 -335 97 -88 26 -179 51 -202 57 l-43 10 0 221 c0 125 -4 227 -10 236 -6 10 -10 -54 -10 -190 0 -113 -4 -211 -8 -217 -6 -10 -23 -10 -78 1 -71 14 -569 116 -819 167 -77 16 -207 42 -290 59 -82 16 -215 42 -295 59 -80 16 -387 78 -682 137 l-538 108 0 228 c0 142 -4 228 -10 228 -6 0 -11 -77 -12 -196 l-3 -196 -78 234 -78 233 0 210 c0 116 -4 219 -9 230 -4 11 -9 -83 -11 -220z"/>
<path d="M2510 3378 c-162 -71 -347 -152 -410 -179 -112 -49 -398 -149 -426 -149 -26 0 -14 -21 74 -131 48 -60 87 -115 87 -121 0 -6 -18 -17 -40 -23 -47 -14 -40 -19 65 -39 41 -8 275 -56 520 -106 648 -133 641 -131 650 -128 4 2 -3 35 -15 73 -13 39 -58 175 -99 304 l-76 234 0 141 c0 103 4 147 14 161 28 42 28 60 -3 78 -16 9 -33 16 -38 16 -4 -1 -141 -60 -303 -131z"/>
<path d="M1275 3291 l-170 -47 -49 -77 c-27 -43 -47 -80 -44 -82 2 -3 49 -12 104 -22 l100 -17 192 55 c106 29 192 58 192 64 0 5 -23 37 -51 70 -29 33 -58 70 -66 82 -9 13 -20 23 -27 22 -6 0 -87 -22 -181 -48z"/>
<path d="M1288 2922 c-71 -19 -128 -38 -128 -41 0 -5 373 -82 393 -81 4 0 -21 36 -55 80 -35 44 -67 79 -73 79 -5 -1 -67 -17 -137 -37z"/>
</g>


</svg>